<?xml version="1.0" encoding="UTF-8"?>
<svg version="1.1" xmlns="http://www.w3.org/2000/svg" width="401" height="465">
<path d="M0 0 C132.33 0 264.66 0 401 0 C401 153.45 401 306.9 401 465 C268.67 465 136.34 465 0 465 C0 311.55 0 158.1 0 0 Z " fill="#154234" transform="translate(0,0)"/>
<path d="M0 0 C1.18154663 -0.00430527 1.18154663 -0.00430527 2.38696289 -0.00869751 C4.05127685 -0.01073772 5.71561481 -0.00521082 7.37988281 0.00732422 C9.92827947 0.02337941 12.47509021 0.00747506 15.0234375 -0.01171875 C16.6406285 -0.00973631 18.25781852 -0.00589261 19.875 0 C20.63756104 -0.00607269 21.40012207 -0.01214539 22.18579102 -0.0184021 C27.48032627 0.05203268 27.48032627 0.05203268 29.63858372 1.68736458 C31.913494 4.68412228 31.35114009 8.39785623 31.32518005 12.01513672 C31.33056559 12.90579771 31.33595113 13.7964587 31.34149987 14.71410942 C31.35585346 17.71058686 31.34865754 20.70662713 31.34155273 23.703125 C31.34725239 25.84645953 31.35421507 27.98979101 31.36235046 30.13311768 C31.38034062 35.96357756 31.37910261 41.79388743 31.37340808 47.62436676 C31.370325 52.48554768 31.37639876 57.34669942 31.38244683 62.20787621 C31.39650939 73.6718118 31.39491607 85.13567289 31.38354492 96.59960938 C31.37205866 108.44156984 31.38614411 120.28330397 31.4129414 132.1252346 C31.4350633 142.27983894 31.4417438 152.43437206 31.43586498 162.58899879 C31.4324862 168.65946495 31.43497162 174.72978595 31.45211601 180.80023193 C31.46752744 186.50643134 31.46369425 192.2122941 31.44481087 197.91847992 C31.44110901 200.01677127 31.44427954 202.11508726 31.45469666 204.21335602 C31.4677992 207.0698775 31.45645501 209.9252667 31.43870544 212.78173828 C31.45311295 214.03790105 31.45311295 214.03790105 31.46781152 215.31944084 C31.39625058 220.88652898 31.39625058 220.88652898 29.13238621 223.41271973 C25.81625939 224.90198379 22.56331758 224.82632692 18.99609375 224.796875 C17.84996361 224.80118027 17.84996361 224.80118027 16.68067932 224.80557251 C15.06941993 224.80760962 13.45813561 224.80210442 11.84692383 224.78955078 C9.37981013 224.77346885 6.91432902 224.78942159 4.44726562 224.80859375 C2.88020472 224.80661169 1.31314483 224.80276877 -0.25390625 224.796875 C-0.99145645 224.80294769 -1.72900665 224.80902039 -2.48890686 224.8152771 C-7.60702904 224.74488704 -7.60702904 224.74488704 -9.75702918 223.10951042 C-12.04130408 220.11552476 -11.47237346 216.40103647 -11.44345093 212.78173828 C-11.4481309 211.89107729 -11.45281087 211.0004163 -11.45763266 210.08276558 C-11.46963719 207.08627738 -11.46010413 204.09024192 -11.45068359 201.09375 C-11.45474687 198.95041638 -11.46008737 196.80708486 -11.46661377 194.66375732 C-11.48032218 188.833289 -11.47497416 183.00297944 -11.46547651 177.17250824 C-11.45789816 171.08000755 -11.46492044 164.98752074 -11.46963501 158.89501953 C-11.47509789 148.66240998 -11.46788698 138.42986533 -11.45361328 128.19726562 C-11.43728579 116.35533765 -11.44257392 104.51356461 -11.4590925 92.6716404 C-11.47269219 82.51703881 -11.47463445 72.36248395 -11.46677649 62.20787621 C-11.46209163 56.13743931 -11.46149742 50.06707532 -11.47138596 43.99664307 C-11.48003128 38.29048637 -11.47407828 32.58453006 -11.45670319 26.87839508 C-11.45272531 24.78010644 -11.45389449 22.68180103 -11.46049118 20.58351898 C-11.46864542 17.72716135 -11.45845942 14.8714526 -11.44345093 12.01513672 C-11.45014309 11.17769487 -11.45683526 10.34025303 -11.46373022 9.47743416 C-11.40607993 3.85109896 -11.40607993 3.85109896 -9.7637583 1.68736458 C-6.88368325 -0.49467134 -3.47154832 -0.02764585 0 0 Z " fill="#194537" transform="translate(275.0625,108.6015625)"/>
<path d="M0 0 C1.22223518 -0.02409439 1.22223518 -0.02409439 2.46916199 -0.04867554 C6.20013393 -0.09339012 9.93093162 -0.13420804 13.66210938 -0.15722656 C15.62414437 -0.17375374 17.58611996 -0.20100086 19.54785156 -0.23925781 C22.38809193 -0.29431515 25.22692319 -0.31594612 28.06762695 -0.33056641 C28.93562424 -0.35323578 29.80362152 -0.37590515 30.69792175 -0.39926147 C37.68187115 -0.375297 42.43792015 1.81186217 47.45829773 6.67129517 C52.66937558 12.5550804 53.22716902 17.6833999 53.21179199 25.1927948 C53.21773424 26.10064344 53.22367648 27.00849208 53.22979879 27.94385129 C53.24714582 30.98677482 53.25018695 34.02954072 53.25317383 37.07250977 C53.26243214 39.2540419 53.27248172 41.43557081 53.28326416 43.61709595 C53.30949831 49.54496698 53.32239945 55.47279272 53.33128548 61.40071273 C53.33714944 65.10530121 53.34535955 68.80987735 53.35429382 72.51445961 C53.38321198 84.77453206 53.40187259 97.03457053 53.41002685 109.294674 C53.41047238 109.95531976 53.41091792 110.61596553 53.41137695 111.29663086 C53.41181981 111.95808734 53.41226267 112.61954382 53.41271895 113.30104444 C53.42011982 123.34656035 53.44974644 133.39183579 53.4934082 143.43725586 C53.5439825 155.11185863 53.57376345 166.7862724 53.57677984 178.46098882 C53.57887462 184.63738781 53.59066112 190.81340236 53.62641907 196.98970604 C53.65941452 202.80192123 53.66367572 208.61346372 53.64614105 214.42573929 C53.64460206 216.55497478 53.653263 218.68424669 53.67305756 220.81339073 C53.85763517 241.90985718 53.85763517 241.90985718 46.9309082 249.19287109 C43.00679299 252.66676518 39.01501942 254.28789694 33.78588867 254.40161133 C32.95427216 254.42090195 32.12265564 254.44019257 31.26583862 254.46006775 C27.45307065 254.51814444 23.64048602 254.56711955 19.82739258 254.59790039 C17.82363603 254.61943397 15.81997237 254.65348148 13.81665039 254.70043945 C10.91420872 254.76779873 8.01371119 254.79496028 5.1105957 254.81396484 C3.78353104 254.85571083 3.78353104 254.85571083 2.42965698 254.89830017 C-4.44946907 254.87585983 -8.87864048 252.67522308 -14.0690918 248.19287109 C-18.85326269 242.70172254 -19.21891178 237.41117193 -19.22299194 230.38876343 C-19.2273742 229.47783452 -19.23175645 228.56690561 -19.2362715 227.62837279 C-19.24967091 224.56311886 -19.25584096 221.49789369 -19.26196289 218.43261719 C-19.26986301 216.23990753 -19.2781319 214.04719917 -19.28674316 211.85449219 C-19.3129755 204.64177698 -19.32827283 197.42905593 -19.3425293 190.21630859 C-19.34788863 187.73417787 -19.35326614 185.25204718 -19.35866165 182.76991653 C-19.38029286 172.444905 -19.39902953 162.11989503 -19.41028404 151.79486656 C-19.41321364 149.1158485 -19.41617532 146.43683047 -19.41918945 143.7578125 C-19.4199355 143.09197209 -19.42068155 142.42613168 -19.42145021 141.74011429 C-19.43409683 130.96013818 -19.46731097 120.18032727 -19.50899129 109.40042834 C-19.55145355 98.32729553 -19.57457672 87.25425153 -19.58020461 76.1810385 C-19.58385846 69.96611723 -19.59588383 63.75147594 -19.62830734 57.53663254 C-19.65838451 51.68758663 -19.66470072 45.83899017 -19.65292358 39.98988342 C-19.65270282 37.84571787 -19.66101026 35.70153149 -19.67857742 33.5574379 C-19.70129882 30.62404676 -19.69295978 27.69228127 -19.67709351 24.75888062 C-19.69097559 23.91557013 -19.70485768 23.07225964 -19.71916044 22.20339429 C-19.63581832 15.92550363 -17.81484295 11.24911594 -14.0690918 6.19287109 C-9.87622868 2.3293437 -5.7323893 0.103058 0 0 Z M-2.7703501 16.48179817 C-5.04513133 19.47878869 -4.47894728 23.19252156 -4.45004272 26.80957031 C-4.4547227 27.7002313 -4.45940267 28.5908923 -4.46422446 29.50854301 C-4.47622899 32.50503121 -4.46669592 35.50106667 -4.45727539 38.49755859 C-4.46133867 40.64089221 -4.46667916 42.78422374 -4.47320557 44.92755127 C-4.48691397 50.75801959 -4.48156596 56.58832915 -4.47206831 62.41880035 C-4.46448996 68.51130105 -4.47151223 74.60378785 -4.47622681 80.69628906 C-4.48168969 90.92889861 -4.47447877 101.16144327 -4.46020508 111.39404297 C-4.44387759 123.23597094 -4.44916572 135.07774398 -4.46568429 146.9196682 C-4.47928399 157.07426978 -4.48122625 167.22882464 -4.47336829 177.38343239 C-4.46868343 183.45386928 -4.46808922 189.52423327 -4.47797775 195.59466553 C-4.48662307 201.30082222 -4.48067008 207.00677854 -4.46329498 212.71291351 C-4.4593171 214.81120216 -4.46048628 216.90950757 -4.46708298 219.00778961 C-4.47523722 221.86414724 -4.46505122 224.71985599 -4.45004272 227.57617188 C-4.46008097 228.83233464 -4.46008097 228.83233464 -4.47032201 230.11387444 C-4.53516935 234.28027591 -4.53516935 234.28027591 -2.76362097 237.90394402 C0.05839587 240.05048358 3.33460338 239.61934316 6.73950195 239.59130859 C7.88419701 239.59561386 7.88419701 239.59561386 9.05201721 239.6000061 C10.66505679 239.60204632 12.27812112 239.59651933 13.89111328 239.58398438 C16.35611564 239.56795105 18.81947298 239.58382185 21.28442383 239.60302734 C22.85278681 239.60104447 24.42114878 239.59719988 25.98950195 239.59130859 C26.72502792 239.59738129 27.46055389 239.60345398 28.21836853 239.60971069 C31.09269967 239.57036012 33.48715349 239.3921602 36.12579441 238.20715332 C38.94986986 235.05583676 38.4782652 231.60003597 38.43211365 227.57617188 C38.43764804 226.68551088 38.44318244 225.79484989 38.44888455 224.87719917 C38.46254207 221.88058026 38.4474942 218.8847869 38.43261719 215.88818359 C38.43639851 213.74484909 38.441897 211.60151702 38.44898987 209.45819092 C38.4629861 203.62767124 38.45174539 197.79744529 38.43527865 191.96694183 C38.42145985 185.87444306 38.42788461 179.7819619 38.43141174 173.68945312 C38.43411638 163.45682016 38.42061646 153.22430432 38.39746094 142.99169922 C38.37084968 131.14976539 38.36910319 119.30802747 38.3808493 107.46607399 C38.39161656 96.08947866 38.38544827 84.71295442 38.37129402 73.33636475 C38.36552509 68.48791836 38.36562402 63.63952383 38.37035942 58.79107666 C38.37512053 53.08490854 38.36506342 47.3789558 38.34340477 41.67282867 C38.33782491 39.57454403 38.33738252 37.47623874 38.34235764 35.37795258 C38.34828242 32.52158355 38.33585943 29.6658793 38.31858826 26.80957031 C38.3245983 25.97212847 38.33060835 25.13468662 38.33680052 24.27186775 C38.39693039 20.10779609 38.39693039 20.10779609 36.63199192 16.48179817 C33.75208815 14.29966809 30.33986174 14.7667885 26.8684082 14.79443359 C26.08071045 14.79156342 25.2930127 14.78869324 24.48144531 14.78573608 C22.81713135 14.78369588 21.15279339 14.78922277 19.48852539 14.80175781 C16.94012874 14.817813 14.39331799 14.80190865 11.8449707 14.78271484 C10.2277797 14.78469728 8.61058969 14.78854098 6.9934082 14.79443359 C6.23084717 14.7883609 5.46828613 14.78228821 4.68261719 14.77603149 C0.69383037 14.75358974 0.69383037 14.75358974 -2.7703501 16.48179817 Z " fill="#E9F3E6" transform="translate(268.069091796875,93.80712890625)"/>
<path d="M0 0 C0.97040222 -0.0099852 1.94080444 -0.0199704 2.94061279 -0.03025818 C4.99145252 -0.04542175 7.04236599 -0.05248452 9.09326172 -0.05200195 C12.21057182 -0.0585438 15.3246621 -0.11298941 18.44140625 -0.16992188 C20.44009335 -0.17872883 22.43879548 -0.18467977 24.4375 -0.1875 C25.35968323 -0.20905655 26.28186646 -0.2306131 27.23199463 -0.25282288 C34.05118191 -0.1816327 39.07890359 1.63987712 43.984375 6.50390625 C47.74441149 11.86539293 48.56927172 15.71086662 48.50195312 22.17382812 C48.5089624 23.0121669 48.51597168 23.85050568 48.52319336 24.71424866 C48.54070455 27.46739468 48.52917535 30.21950096 48.515625 32.97265625 C48.5183219 34.89644568 48.52220596 36.82023377 48.52722168 38.74401855 C48.53310741 42.76876856 48.5245836 46.79316259 48.50585938 50.81787109 C48.48307044 55.96603483 48.49619848 61.11336434 48.52014923 66.2614975 C48.53463221 70.23189532 48.52998975 74.20209673 48.51963806 78.17250061 C48.51697769 80.07023722 48.52021619 81.96799191 48.52955627 83.8657074 C48.53976318 86.52227736 48.52416365 89.17751328 48.50195312 91.83398438 C48.51005005 92.61133438 48.51814697 93.38868439 48.52648926 94.18959045 C48.42890476 100.51859871 46.53762325 104.74749631 42.16796875 109.46484375 C41.59175781 109.93148437 41.01554687 110.398125 40.421875 110.87890625 C39.84308594 111.36101562 39.26429688 111.843125 38.66796875 112.33984375 C35.79629513 114.32536286 33.20952582 114.63737763 29.82348633 114.69677734 C28.98864212 114.71284027 28.15379791 114.7289032 27.2936554 114.74545288 C23.47108964 114.79015175 19.6486942 114.83098456 15.82592773 114.85400391 C13.81539307 114.87053284 11.80491642 114.89778226 9.79467773 114.93603516 C6.88494608 114.99107573 3.97658987 115.01272105 1.06640625 115.02734375 C0.17653519 115.05001312 -0.71333588 115.0726825 -1.63017273 115.09603882 C-7.97873036 115.07476735 -12.07578204 113.50889392 -17.015625 109.50390625 C-22.31159211 103.92920403 -23.31489705 98.85235276 -23.2902832 91.33642578 C-23.29539413 90.52763977 -23.30050507 89.71885376 -23.30577087 88.88555908 C-23.31963955 86.21920311 -23.31871202 83.55310645 -23.31640625 80.88671875 C-23.32029496 79.02733261 -23.32462999 77.16794735 -23.32939148 75.30856323 C-23.33684804 71.41319905 -23.3365667 67.51792551 -23.33129883 63.62255859 C-23.32550797 58.64038951 -23.34242866 53.65859264 -23.3656435 48.67648506 C-23.38040454 44.83651575 -23.38124926 40.99663557 -23.37813377 37.15664291 C-23.37864589 35.32030374 -23.38386304 33.48395943 -23.39394569 31.64764786 C-23.40633748 29.07491415 -23.399502 26.50289874 -23.38793945 23.93017578 C-23.39558319 23.1777359 -23.40322693 22.42529602 -23.41110229 21.65005493 C-23.34826204 15.29655768 -21.88471159 10.66811177 -17.640625 5.75390625 C-11.71302338 0.67310486 -7.62586997 0.02736675 0 0 Z " fill="#E9F3E6" transform="translate(90.015625,233.49609375)"/>
<path d="M0 0 C0.90136185 -0.00960754 1.80272369 -0.01921509 2.73139954 -0.02911377 C3.7032872 -0.03336365 4.67517487 -0.03761353 5.67651367 -0.04199219 C7.18032845 -0.0505423 7.18032845 -0.0505423 8.71452332 -0.05926514 C10.83701523 -0.06871379 12.9595218 -0.07524858 15.08203125 -0.07910156 C18.32146969 -0.0887983 21.56027126 -0.11981967 24.79956055 -0.15136719 C26.86270783 -0.15789832 28.92585964 -0.16314836 30.98901367 -0.16699219 C31.95482864 -0.17933899 32.92064362 -0.19168579 33.91572571 -0.20440674 C40.72410206 -0.1819735 44.98907604 0.91391322 50.21948242 5.53613281 C55.40975623 11.42779497 56.64866606 15.89140727 56.68588257 23.6111145 C56.69245595 24.5795848 56.69245595 24.5795848 56.69916213 25.56762016 C56.71250694 27.72916517 56.71871926 29.89066946 56.72485352 32.05224609 C56.73275799 33.60309532 56.74102715 35.15394272 56.74963379 36.70478821 C56.77581732 41.79698947 56.79115928 46.88919879 56.80541992 51.98144531 C56.8107814 53.73702881 56.81615891 55.49261225 56.82155228 57.24819565 C56.84317697 64.5536611 56.86191173 71.85912438 56.87317467 79.16461372 C56.88940168 89.61982272 56.92255372 100.07465939 56.97957551 110.52972806 C57.01833691 117.88871513 57.03781477 125.24760289 57.04309523 132.60668933 C57.04674064 136.99794286 57.05867496 141.38879894 57.09119797 145.77994156 C57.12138755 149.91527731 57.12755205 154.04997741 57.11581421 158.18540001 C57.11559437 159.69703103 57.12382479 161.20869249 57.14146805 162.72022057 C57.24632036 172.22619819 56.56298611 180.30569789 50.12459373 187.79915047 C44.08243982 193.40643006 36.55985383 193.49177584 28.79370117 193.56738281 C27.87289261 193.57878296 26.95208405 193.59018311 26.00337219 193.60192871 C24.06284113 193.6207412 22.12224744 193.63386171 20.18164062 193.64160156 C17.23802517 193.66101055 14.29720921 193.72312386 11.35424805 193.78613281 C-5.66527019 193.97857762 -5.66527019 193.97857762 -12.79272461 188.84667969 C-18.93292575 182.66889643 -19.58410218 174.85491002 -19.6151886 166.49514771 C-19.61886529 165.85046441 -19.62254197 165.20578111 -19.62633008 164.54156196 C-19.63728594 162.39537547 -19.6411968 160.24923751 -19.64501953 158.10302734 C-19.6512901 156.55849049 -19.65793742 155.01395513 -19.66493225 153.46942139 C-19.6858971 148.4109399 -19.69632464 143.35245836 -19.70629883 138.29394531 C-19.71034863 136.54883687 -19.71446562 134.80372858 -19.71864891 133.05862045 C-19.7376806 124.86164235 -19.75191823 116.66467316 -19.76026088 108.46767724 C-19.77003875 99.01800718 -19.79638105 89.56857102 -19.83676177 80.11898339 C-19.8669406 72.80499549 -19.88173126 65.49107462 -19.88504189 58.17702568 C-19.88738948 53.81275713 -19.89631273 49.44873906 -19.92150307 45.08453751 C-19.94482122 40.97879046 -19.94900215 36.87345821 -19.93874168 32.76766205 C-19.93824719 31.26487471 -19.94454206 29.76206666 -19.95829773 28.25934219 C-20.02677878 20.33189868 -19.96329237 13.95680153 -15.46801758 7.16113281 C-13.43286133 5.10253906 -13.43286133 5.10253906 -11.40551758 3.72363281 C-10.73391602 3.25054687 -10.06231445 2.77746094 -9.37036133 2.29003906 C-6.21149151 0.41547361 -3.59244676 0.03095461 0 0 Z M-3.18627357 16.29158783 C-5.06226527 19.02789934 -4.84572629 21.16239884 -4.84896851 24.46203613 C-4.85364848 25.10360043 -4.85832845 25.74516473 -4.86315024 26.40617037 C-4.87513318 28.55972642 -4.86563073 30.71264997 -4.85620117 32.86621094 C-4.86026543 34.40856804 -4.86560649 35.95092222 -4.87213135 37.49327087 C-4.88582818 41.6853821 -4.88049661 45.87727226 -4.87099409 50.06938744 C-4.86340972 54.45222961 -4.8704397 58.8350526 -4.87515259 63.21789551 C-4.88061371 70.57872931 -4.87340919 77.93947286 -4.85913086 85.30029297 C-4.84280364 93.81581558 -4.8480919 102.33112272 -4.86461008 110.84664011 C-4.8782148 118.15201365 -4.88014958 125.45732226 -4.87229407 132.76270437 C-4.86761196 137.12846503 -4.86700742 141.49412435 -4.87690353 145.85987854 C-4.88555622 149.96390962 -4.87958261 154.06766234 -4.86222076 158.17166328 C-4.8582468 159.67975464 -4.85940549 161.18786933 -4.86600876 162.69595146 C-4.8741789 164.75102932 -4.86395911 166.80520921 -4.84896851 168.86022949 C-4.84783743 170.01133965 -4.84670635 171.1624498 -4.845541 172.34844208 C-4.68510048 175.14552528 -4.68510048 175.14552528 -3.18627357 177.03166962 C-0.08142593 179.0725827 3.65434182 178.56440749 7.25073242 178.52441406 C8.10501831 178.52491257 8.9593042 178.52541107 9.83947754 178.52592468 C11.6450432 178.52358496 13.45061217 178.51386238 15.25610352 178.49731445 C18.02153658 178.47372193 20.78600555 178.47675413 23.55151367 178.48339844 C25.30542568 178.47782159 27.05933362 178.47071168 28.81323242 178.46191406 C29.64141479 178.46282547 30.46959717 178.46373688 31.32287598 178.4646759 C35.22989573 178.41636642 37.20914624 178.37635693 40.53198242 176.16113281 C40.98999317 173.33117901 40.98999317 173.33117901 40.91293335 169.94252014 C40.91761332 169.29772672 40.92229329 168.65293329 40.92711508 167.98860067 C40.93912481 165.81812175 40.92958514 163.64826731 40.92016602 161.4777832 C40.92422913 159.92572154 40.92956954 158.37366276 40.93609619 156.8216095 C40.94980783 152.59844896 40.94445509 148.37550755 40.93495893 144.15234303 C40.92738083 139.7387985 40.93440291 135.32527315 40.93911743 130.91172791 C40.94458097 123.49783957 40.93736833 116.08404077 40.9230957 108.67016602 C40.90677403 100.09274872 40.91205174 91.51554539 40.92857492 82.9381333 C40.94217996 75.58182505 40.94411408 68.2255813 40.93625891 60.86926454 C40.9315762 56.4721901 40.93097377 52.07521629 40.94086838 47.67814827 C40.94952132 43.54376249 40.94354695 39.40965303 40.92618561 35.27529716 C40.92221152 33.75591872 40.92337053 32.23651712 40.9299736 30.71714783 C40.93814342 28.64669208 40.92792423 26.57712771 40.91293335 24.50672913 C40.91180227 23.34694581 40.9106712 22.18716249 40.90950584 20.99223423 C40.75089667 18.17908141 40.75089667 18.17908141 39.25023842 16.28879452 C36.14460646 14.25062195 32.41061425 14.73631731 28.81323242 14.76269531 C27.53180359 14.75839005 27.53180359 14.75839005 26.2244873 14.7539978 C24.41893857 14.75195701 22.61336773 14.75748799 20.80786133 14.77001953 C18.0422223 14.78607337 15.27804468 14.77017182 12.51245117 14.75097656 C10.75854169 14.75295899 9.00463312 14.75680266 7.25073242 14.76269531 C6.00845886 14.75358627 6.00845886 14.75358627 4.74108887 14.74429321 C0.56634283 14.71044362 0.56634283 14.71044362 -3.18627357 16.29158783 Z " fill="#7CCE60" transform="translate(175.468017578125,154.8388671875)"/>
<path d="M0 0 C0.79273315 0.00404846 1.58546631 0.00809692 2.40222168 0.01226807 C3.62274231 0.00939789 3.62274231 0.00939789 4.86791992 0.00646973 C6.58948068 0.0051078 8.31105171 0.00880479 10.03259277 0.01715088 C12.67296338 0.02785048 15.31265357 0.01725607 17.95300293 0.00445557 C19.62357735 0.00577716 21.29415135 0.00833955 22.96472168 0.01226807 C23.75745483 0.0082196 24.55018799 0.00417114 25.36694336 0 C30.95355141 0.04797279 30.95355141 0.04797279 33.18347168 2.27789307 C33.38697771 4.79108828 33.46670166 7.19457142 33.45812988 9.70928955 C33.46324081 10.4752948 33.46835175 11.24130005 33.47361755 12.03051758 C33.48755109 14.57008616 33.48655396 17.10938449 33.48425293 19.64898682 C33.48813788 21.41014203 33.49247213 23.1712963 33.49723816 24.93244934 C33.50470852 28.62713658 33.50440327 32.32172828 33.49914551 36.01641846 C33.49335063 40.75581758 33.51027825 45.49482593 33.53349018 50.23416042 C33.54820819 53.87238357 33.54910185 57.5105122 33.54598045 61.14875984 C33.54649467 62.89629961 33.55175115 64.64384452 33.56179237 66.39135551 C33.57410191 68.83353069 33.56739855 71.27493953 33.55578613 73.71710205 C33.56725174 74.80427269 33.56725174 74.80427269 33.57894897 75.91340637 C33.54866239 78.78887071 33.5041934 80.79876366 31.87931824 83.22618103 C28.95384978 85.04046686 25.67778914 84.70369847 22.33972168 84.67633057 C21.19146912 84.68063583 21.19146912 84.68063583 20.02001953 84.68502808 C18.40278381 84.68706806 16.78552338 84.68154269 15.16833496 84.66900635 C12.69235077 84.65295064 10.21799883 84.66885603 7.74206543 84.68804932 C6.17044724 84.68606687 4.59883007 84.68222317 3.02722168 84.67633057 C2.28653442 84.68240326 1.54584717 84.68847595 0.78271484 84.69473267 C-4.25559943 84.62576396 -4.25559943 84.62576396 -6.51237488 83.22618103 C-8.5120968 80.23877631 -8.22547373 77.19045511 -8.18884277 73.71710205 C-8.19249344 72.94934448 -8.1961441 72.18158691 -8.1999054 71.39056396 C-8.208015 68.85148029 -8.19439898 66.31303392 -8.17980957 63.77398682 C-8.17929106 62.01186626 -8.1798084 60.24974511 -8.18132019 58.48762512 C-8.18123045 54.79466111 -8.17079684 51.10191533 -8.15270996 47.40899658 C-8.13000607 42.66846541 -8.1294815 37.92825275 -8.13622761 33.18768215 C-8.13956402 29.54949599 -8.13294399 25.91138285 -8.12309837 22.27321053 C-8.11924166 20.524856 -8.1181001 18.77649336 -8.11968422 17.0281353 C-8.12005383 14.58836166 -8.10746474 12.14900129 -8.09118652 9.70928955 C-8.09490265 8.61908257 -8.09490265 8.61908257 -8.09869385 7.5068512 C-8.02829821 0.91787941 -6.46572447 0.05552186 0 0 Z " fill="#154234" transform="translate(89.8165283203125,248.72210693359375)"/>
</svg>
