<?xml version="1.0" encoding="UTF-8"?>
<svg version="1.1" xmlns="http://www.w3.org/2000/svg" width="361" height="406">
<path d="M0 0 C119.13 0 238.26 0 361 0 C361 133.98 361 267.96 361 406 C241.87 406 122.74 406 0 406 C0 272.02 0 138.04 0 0 Z " fill="#EFFEEC" transform="translate(0,0)"/>
<path d="M0 0 C1.87833502 -0.00678232 3.75666339 -0.0156889 5.63497925 -0.02655029 C10.71770009 -0.04927702 15.79991149 -0.04053465 20.88264084 -0.02465487 C26.21156904 -0.01196152 31.54045477 -0.02374551 36.86938477 -0.03158569 C45.81697387 -0.04067225 54.76435636 -0.02872039 63.71191406 -0.00488281 C74.04412043 0.02232646 84.37583342 0.0135116 94.70802784 -0.01401484 C103.59239571 -0.03673319 112.47661538 -0.03989264 121.36100292 -0.02682149 C126.66141531 -0.019042 131.96159607 -0.0179441 137.26199341 -0.03450394 C142.24612553 -0.04898906 147.22962395 -0.03885308 152.2136879 -0.01003265 C154.03854446 -0.00344343 155.86345472 -0.00528233 157.68828964 -0.01634598 C176.60079861 -0.12040353 176.60079861 -0.12040353 184.27708435 7.38931847 C190.51725896 14.71683607 190.79846441 23.88268619 190.76351929 33.12754822 C190.7680504 34.02671276 190.77258151 34.92587731 190.77724993 35.85228926 C190.78981159 38.83590605 190.78827894 41.81933837 190.78662109 44.80297852 C190.79261135 46.95406832 190.79941804 49.10515598 190.80697632 51.25624084 C190.82458943 57.0785272 190.82932963 62.90075471 190.83060789 68.72306514 C190.83203231 72.36453721 190.83630736 76.00599446 190.84160233 79.64746284 C190.86008467 92.36207144 190.86827489 105.07663818 190.86669922 117.79125977 C190.86549721 129.62694941 190.88661597 141.46245687 190.91818655 153.29810041 C190.94436375 163.47589311 190.95506596 173.65362634 190.9537884 183.83145243 C190.95327934 189.90319743 190.95893205 195.97478029 190.9801445 202.04649162 C190.99955193 207.75689758 190.999634 213.46698708 190.98511124 219.1774044 C190.98302541 221.26750909 190.98771043 223.35763374 190.99983215 225.44770432 C191.12343572 248.24412969 191.12343572 248.24412969 184.53125 257.36572266 C183.88027344 257.95353516 183.22929687 258.54134766 182.55859375 259.14697266 C181.91019531 259.75541016 181.26179687 260.36384766 180.59375 260.99072266 C175.19565556 265.25290523 171.46187169 266.27230545 164.62890625 266.15478516 C160.24069678 265.44347938 157.36955598 263.38268009 153.734375 260.93603516 C151.40176087 259.36728653 151.40176087 259.36728653 147.87109375 259.45947266 C144.27561845 260.7245473 141.42086882 262.33872741 138.29296875 264.49072266 C134.42784981 266.97784267 130.97666305 267.01423244 126.49609375 266.64697266 C122.68626817 265.18666 119.29579199 263.19310804 115.93359375 260.89697266 C112.47879768 259.12528236 110.34404122 259.12521707 106.49609375 259.64697266 C104.29908621 260.77582183 102.31382887 262.0369226 100.29296875 263.45556641 C95.81843117 266.42237937 90.65046258 266.44543643 85.49609375 265.64697266 C82.640625 264.27197266 82.640625 264.27197266 79.80859375 262.58447266 C76.28670215 260.48621893 74.86520974 259.65907482 70.68359375 259.52197266 C67.1542897 260.76760938 64.51485072 262.45151304 61.49609375 264.64697266 C55.98254727 266.48482148 50.09775368 266.93838996 44.796875 264.30712891 C43.11578299 263.21300317 41.43858279 262.11287092 39.765625 261.00634766 C36.36259621 258.9680447 34.36202982 258.8034957 30.49609375 259.64697266 C28.04417334 261.04394916 25.7804262 262.55908345 23.51171875 264.23681641 C19.50893381 267.0372144 15.2212619 267.36290723 10.49609375 266.64697266 C5.7620932 264.84834023 1.62271246 262.59435657 -2.25390625 259.33447266 C-4.44429376 257.41144319 -4.44429376 257.41144319 -7.50390625 257.20947266 C-10.5399607 257.44471224 -10.5399607 257.44471224 -12.87890625 259.14697266 C-16.43311549 261.17794937 -19.55398302 261.31530567 -23.50390625 260.64697266 C-28.88519076 258.71886059 -31.72833687 255.66434808 -34.50390625 250.64697266 C-35.82729428 246.67680857 -35.6519568 242.87512667 -35.65107727 238.73570251 C-35.65475396 237.81322851 -35.65843065 236.89075451 -35.66221875 235.94032675 C-35.67326953 232.83594468 -35.67710183 229.73159607 -35.6809082 226.62719727 C-35.68717189 224.40655409 -35.6938186 222.18591197 -35.70082092 219.965271 C-35.71824144 213.92158517 -35.72878596 207.87790725 -35.73702645 201.83420253 C-35.74217529 198.05827049 -35.74825113 194.2823409 -35.75453758 190.5064106 C-35.77140979 180.04671913 -35.78604358 169.5870288 -35.79328632 159.12732601 C-35.79519615 156.41325313 -35.79711649 153.69918027 -35.79907227 150.98510742 C-35.79955601 150.31055748 -35.80003975 149.63600753 -35.80053815 148.94101668 C-35.8088319 138.02271405 -35.83415712 127.10452121 -35.86665294 116.18626647 C-35.8997638 104.96962067 -35.91740634 93.75302849 -35.92093056 82.53632742 C-35.92328064 76.24149567 -35.93223562 69.94683736 -35.95739174 63.65205193 C-35.98068806 57.72671578 -35.9848992 51.80166708 -35.97463036 45.876297 C-35.97413524 43.70514533 -35.9804484 41.53397943 -35.9941864 39.36287117 C-36.01193658 36.39061477 -36.00478338 33.41938642 -35.99165344 30.4471283 C-36.00262269 29.59505781 -36.01359193 28.74298732 -36.02489358 27.86509651 C-35.9458536 20.41519089 -33.63404981 14.19721192 -29.81640625 7.83447266 C-20.97825986 -0.52593609 -11.49698999 -0.06970416 0 0 Z " fill="#EEFEEB" transform="translate(111.50390625,70.35302734375)"/>
<path d="M0 0 C1.87833502 -0.00678232 3.75666339 -0.0156889 5.63497925 -0.02655029 C10.71770009 -0.04927702 15.79991149 -0.04053465 20.88264084 -0.02465487 C26.21156904 -0.01196152 31.54045477 -0.02374551 36.86938477 -0.03158569 C45.81697387 -0.04067225 54.76435636 -0.02872039 63.71191406 -0.00488281 C74.04412043 0.02232646 84.37583342 0.0135116 94.70802784 -0.01401484 C103.59239571 -0.03673319 112.47661538 -0.03989264 121.36100292 -0.02682149 C126.66141531 -0.019042 131.96159607 -0.0179441 137.26199341 -0.03450394 C142.24612553 -0.04898906 147.22962395 -0.03885308 152.2136879 -0.01003265 C154.03854446 -0.00344343 155.86345472 -0.00528233 157.68828964 -0.01634598 C176.60079861 -0.12040353 176.60079861 -0.12040353 184.27708435 7.38931847 C190.51725896 14.71683607 190.79846441 23.88268619 190.76351929 33.12754822 C190.7680504 34.02671276 190.77258151 34.92587731 190.77724993 35.85228926 C190.78981159 38.83590605 190.78827894 41.81933837 190.78662109 44.80297852 C190.79261135 46.95406832 190.79941804 49.10515598 190.80697632 51.25624084 C190.82458943 57.0785272 190.82932963 62.90075471 190.83060789 68.72306514 C190.83203231 72.36453721 190.83630736 76.00599446 190.84160233 79.64746284 C190.86008467 92.36207144 190.86827489 105.07663818 190.86669922 117.79125977 C190.86549721 129.62694941 190.88661597 141.46245687 190.91818655 153.29810041 C190.94436375 163.47589311 190.95506596 173.65362634 190.9537884 183.83145243 C190.95327934 189.90319743 190.95893205 195.97478029 190.9801445 202.04649162 C190.99955193 207.75689758 190.999634 213.46698708 190.98511124 219.1774044 C190.98302541 221.26750909 190.98771043 223.35763374 190.99983215 225.44770432 C191.12343572 248.24412969 191.12343572 248.24412969 184.53125 257.36572266 C183.88027344 257.95353516 183.22929687 258.54134766 182.55859375 259.14697266 C181.91019531 259.75541016 181.26179687 260.36384766 180.59375 260.99072266 C175.19565556 265.25290523 171.46187169 266.27230545 164.62890625 266.15478516 C160.24069678 265.44347938 157.36955598 263.38268009 153.734375 260.93603516 C151.40176087 259.36728653 151.40176087 259.36728653 147.87109375 259.45947266 C144.27561845 260.7245473 141.42086882 262.33872741 138.29296875 264.49072266 C134.42784981 266.97784267 130.97666305 267.01423244 126.49609375 266.64697266 C122.68626817 265.18666 119.29579199 263.19310804 115.93359375 260.89697266 C112.47879768 259.12528236 110.34404122 259.12521707 106.49609375 259.64697266 C104.29908621 260.77582183 102.31382887 262.0369226 100.29296875 263.45556641 C95.81843117 266.42237937 90.65046258 266.44543643 85.49609375 265.64697266 C82.640625 264.27197266 82.640625 264.27197266 79.80859375 262.58447266 C76.28670215 260.48621893 74.86520974 259.65907482 70.68359375 259.52197266 C67.1542897 260.76760938 64.51485072 262.45151304 61.49609375 264.64697266 C55.98254727 266.48482148 50.09775368 266.93838996 44.796875 264.30712891 C43.11578299 263.21300317 41.43858279 262.11287092 39.765625 261.00634766 C36.36259621 258.9680447 34.36202982 258.8034957 30.49609375 259.64697266 C28.04417334 261.04394916 25.7804262 262.55908345 23.51171875 264.23681641 C19.50893381 267.0372144 15.2212619 267.36290723 10.49609375 266.64697266 C5.7620932 264.84834023 1.62271246 262.59435657 -2.25390625 259.33447266 C-4.44429376 257.41144319 -4.44429376 257.41144319 -7.50390625 257.20947266 C-10.5399607 257.44471224 -10.5399607 257.44471224 -12.87890625 259.14697266 C-16.43311549 261.17794937 -19.55398302 261.31530567 -23.50390625 260.64697266 C-28.88519076 258.71886059 -31.72833687 255.66434808 -34.50390625 250.64697266 C-35.82729428 246.67680857 -35.6519568 242.87512667 -35.65107727 238.73570251 C-35.65475396 237.81322851 -35.65843065 236.89075451 -35.66221875 235.94032675 C-35.67326953 232.83594468 -35.67710183 229.73159607 -35.6809082 226.62719727 C-35.68717189 224.40655409 -35.6938186 222.18591197 -35.70082092 219.965271 C-35.71824144 213.92158517 -35.72878596 207.87790725 -35.73702645 201.83420253 C-35.74217529 198.05827049 -35.74825113 194.2823409 -35.75453758 190.5064106 C-35.77140979 180.04671913 -35.78604358 169.5870288 -35.79328632 159.12732601 C-35.79519615 156.41325313 -35.79711649 153.69918027 -35.79907227 150.98510742 C-35.79955601 150.31055748 -35.80003975 149.63600753 -35.80053815 148.94101668 C-35.8088319 138.02271405 -35.83415712 127.10452121 -35.86665294 116.18626647 C-35.8997638 104.96962067 -35.91740634 93.75302849 -35.92093056 82.53632742 C-35.92328064 76.24149567 -35.93223562 69.94683736 -35.95739174 63.65205193 C-35.98068806 57.72671578 -35.9848992 51.80166708 -35.97463036 45.876297 C-35.97413524 43.70514533 -35.9804484 41.53397943 -35.9941864 39.36287117 C-36.01193658 36.39061477 -36.00478338 33.41938642 -35.99165344 30.4471283 C-36.00262269 29.59505781 -36.01359193 28.74298732 -36.02489358 27.86509651 C-35.9458536 20.41519089 -33.63404981 14.19721192 -29.81640625 7.83447266 C-20.97825986 -0.52593609 -11.49698999 -0.06970416 0 0 Z M-23.84758091 16.31215382 C-26.02595414 20.6980555 -26.05859189 24.17324961 -26.00511169 29.0040741 C-26.01064609 29.93813389 -26.01618049 30.87219368 -26.02188259 31.83455831 C-26.03548075 34.96004568 -26.02052424 38.08473338 -26.00561523 41.21020508 C-26.00939862 43.45250284 -26.01489883 45.69479827 -26.02198792 47.93708801 C-26.03595464 54.02361621 -26.02476506 60.10986212 -26.0082767 66.19637465 C-25.99443588 72.56111996 -26.00088498 78.92584872 -26.00440979 85.29060364 C-26.00711208 95.97609644 -25.99372013 106.66146551 -25.97045898 117.34692383 C-25.94652208 128.34403651 -25.93946172 139.3410007 -25.94995117 150.33813477 C-25.96257016 163.59160901 -25.9600782 176.84499715 -25.94429207 190.0984745 C-25.93852398 195.16183385 -25.93862136 200.22514354 -25.94335747 205.28850365 C-25.94811763 211.24504458 -25.93806545 217.20137914 -25.91640282 223.15788078 C-25.91082241 225.34808404 -25.91038106 227.53830709 -25.91535568 229.72851181 C-25.92127909 232.70951356 -25.90886018 235.68987797 -25.8915863 238.67082214 C-25.89759635 239.54512711 -25.90360639 240.41943208 -25.90979856 241.32023114 C-25.98178964 245.63015316 -25.98178964 245.63015316 -24.1949802 249.40326291 C-22.39102842 251.00597106 -22.39102842 251.00597106 -19.06640625 250.45947266 C-15.67371882 249.84875631 -15.67371882 249.84875631 -13.50390625 248.58447266 C-10.34484141 247.10366101 -7.95711334 247.30165195 -4.50390625 247.64697266 C-0.16854836 249.22579393 3.40813208 251.53475778 6.99609375 254.39697266 C10.01964541 256.59280995 12.57424414 257.43410676 16.4140625 257.22119141 C18.99983265 256.50804279 20.56254347 255.27944462 22.68359375 253.64697266 C27.47955842 250.17403272 31.43827483 249.79506348 37.28125 250.03369141 C41.67370182 250.87161964 44.64085477 252.87211644 48.29296875 255.35791016 C50.59339962 256.93051694 50.59339962 256.93051694 54.12109375 256.83447266 C57.07720375 255.79435988 58.70200546 254.85776367 61.18359375 253.08447266 C66.31191444 249.63560202 71.52168995 249.86330615 77.49609375 250.64697266 C80.78496384 251.90272305 83.09366613 253.35805026 85.93359375 255.39697266 C89.59558255 257.18330866 91.59758181 256.72242423 95.49609375 255.64697266 C97.3871567 254.47348286 99.10072282 253.21500989 100.8203125 251.80322266 C104.77630114 249.07368271 109.85107194 249.02427046 114.49609375 249.64697266 C118.25195554 251.02140034 121.50942693 252.80980081 124.55859375 255.39697266 C127.73703548 257.44758022 129.7828735 257.19482482 133.49609375 256.64697266 C134.92690056 255.69768737 136.32067275 254.69138495 137.68359375 253.64697266 C143.07595868 249.74120148 148.03866812 249.70737577 154.49609375 250.64697266 C157.80296922 251.88705096 159.8386396 253.0531431 162.43359375 255.39697266 C164.57518875 256.93851737 164.57518875 256.93851737 167.87109375 256.64697266 C173.59730177 255.06732906 176.3706972 252.27516355 179.63970852 247.54565334 C182.02753826 243.20560136 182.0584163 239.26166611 182.01075745 234.39308167 C182.02117574 233.02662873 182.02117574 233.02662873 182.0318045 231.63257068 C182.05004849 228.59097711 182.0398173 225.55016579 182.02954102 222.50854492 C182.03660078 220.32347023 182.04534604 218.13840043 182.0556488 215.95333862 C182.07814579 210.02563891 182.07520223 204.09820616 182.06632733 198.17048001 C182.06121639 193.22009054 182.06851089 188.26975118 182.07579941 183.31936687 C182.09377106 170.97282611 182.08738675 158.62643032 182.0696296 146.27989464 C182.05584897 136.23378531 182.06597241 126.18792478 182.09301758 116.1418457 C182.12433796 104.46430174 182.13879679 92.78692357 182.12921757 81.10933727 C182.12428883 74.93199207 182.12650148 68.7548649 182.14700508 62.57754707 C182.16536306 56.76861576 182.1594014 50.96020566 182.13480568 45.15130234 C182.12979832 43.02124606 182.13328553 40.89115006 182.14595413 38.76112556 C182.16189987 35.84943497 182.14691894 32.9394575 182.12428284 30.02784729 C182.13611857 29.18824339 182.14795429 28.34863949 182.16014868 27.48359305 C182.06529008 21.46305513 180.52106874 17.19532453 176.49609375 12.64697266 C172.07094653 9.55601627 168.01128998 9.21428978 162.75366211 9.2592926 C161.99322822 9.25390706 161.23279432 9.24852153 160.44931698 9.24297279 C157.91135729 9.22871064 155.37392046 9.23579244 152.8359375 9.24291992 C151.01229433 9.23721549 149.18865473 9.23025094 147.36502075 9.22212219 C142.41879841 9.20418516 137.47275342 9.20536004 132.52650833 9.21106458 C128.39614427 9.2141552 124.26581434 9.20806548 120.13545513 9.20202583 C110.39203235 9.18798084 100.64869724 9.1895421 90.90527344 9.20092773 C80.85431624 9.2124132 70.80362573 9.19832598 60.75270367 9.17153126 C52.12069411 9.14938104 43.48876832 9.14273523 34.85673237 9.14860767 C29.70226466 9.15197955 24.54796798 9.14954659 19.39352417 9.13235664 C14.54742838 9.1169001 9.70172813 9.12082874 4.85564804 9.13966179 C3.07790071 9.14335103 1.30012414 9.14022944 -0.47759628 9.129776 C-2.9060124 9.11658714 -5.33311491 9.12809374 -7.76147461 9.14576721 C-8.46362123 9.13616221 -9.16576784 9.1265572 -9.88919163 9.11666113 C-16.28224591 9.21228341 -19.71763206 11.61565645 -23.84758091 16.31215382 Z " fill="#346D2D" transform="translate(111.50390625,70.35302734375)"/>
<path d="M0 0 C1.98 0 3.96 0 6 0 C6 1.32 6 2.64 6 4 C6.556875 4.00257812 7.11375 4.00515625 7.6875 4.0078125 C14.35762934 4.34582581 18.06877659 6.60623963 23 11 C22.30621489 14.26011642 21.54106009 15.79038253 19 18 C16 17 16 17 14.125 15 C11.8580633 12.51293486 11.8580633 12.51293486 7 12 C7 17.94 7 23.88 7 30 C9.31 30.33 11.62 30.66 14 31 C18.22876695 32.4047863 21.34846879 34.34846879 24.5 37.5 C26.67819158 42.58244702 26.81462618 47.54714185 26 53 C23.53085859 57.9888208 20.01790072 61.49104964 15 64 C12.3276379 64.13415472 9.67749512 64.04318541 7 64 C7 65.65 7 67.3 7 69 C4.69 69 2.38 69 0 69 C0 67.35 0 65.7 0 64 C-1.155 64.103125 -2.31 64.20625 -3.5 64.3125 C-9.39795265 64.33345187 -13.39301831 61.23035228 -17.73046875 57.51953125 C-19 56 -19 56 -19 53 C-17.46875 51.61328125 -17.46875 51.61328125 -15.5 50.3125 C-14.8503125 49.87550781 -14.200625 49.43851563 -13.53125 48.98828125 C-13.0259375 48.66214844 -12.520625 48.33601563 -12 48 C-11.505 48.763125 -11.01 49.52625 -10.5 50.3125 C-7.60290876 53.82783392 -7.60290876 53.82783392 0 56 C0 49.73 0 43.46 0 37 C-2.64 36.34 -5.28 35.68 -8 35 C-11.55869162 32.88586439 -14.25479082 30.19881477 -16.4375 26.6875 C-17.58490513 21.20545327 -17.89719833 16.76116709 -15.3125 11.6875 C-12.55490871 8.48273175 -9.79783416 5.89891708 -6 4 C-4.00039988 3.960008 -1.99952758 3.95653201 0 4 C0 2.68 0 1.36 0 0 Z " fill="#7ED061" transform="translate(136,113)"/>
<path d="M0 0 C1.27743576 -0.00426498 2.55487152 -0.00852997 3.87101746 -0.01292419 C5.29988101 -0.01257463 6.72874454 -0.01211307 8.15760803 -0.0115509 C9.65202926 -0.01454077 11.14644972 -0.01794289 12.64086914 -0.02172852 C16.71106645 -0.03059029 20.78124275 -0.03290754 24.85144877 -0.0335443 C28.24378577 -0.03449159 31.63611783 -0.0381678 35.02845293 -0.0417164 C43.02886393 -0.04986922 51.02926367 -0.05229988 59.02967834 -0.05158997 C67.29519642 -0.05098894 75.56064927 -0.06154379 83.82615083 -0.07733363 C90.91149706 -0.09038895 97.99682192 -0.09577471 105.08218008 -0.09513456 C109.31881694 -0.09487898 113.55539587 -0.09776299 117.7920208 -0.10831261 C121.77530197 -0.11795993 125.75846946 -0.11809608 129.74175453 -0.11079597 C131.20673157 -0.10974592 132.67171555 -0.11213778 134.1366806 -0.11815643 C136.13057567 -0.12581983 138.12450911 -0.12005798 140.1184082 -0.11352539 C141.795045 -0.11434254 141.795045 -0.11434254 143.50555325 -0.1151762 C146.12269592 0.13371277 146.12269592 0.13371277 148.12269592 2.13371277 C148.37269592 5.13371277 148.37269592 5.13371277 148.12269592 8.13371277 C145.40062574 10.85578296 143.94333024 10.3896827 140.13186646 10.40113831 C138.85450119 10.40966827 137.57713593 10.41819824 136.26106262 10.42698669 C134.83741748 10.42628761 133.41377243 10.42536451 131.99012756 10.42424011 C130.49717877 10.43022163 129.00423309 10.43702629 127.5112915 10.44459534 C123.44933812 10.46230038 119.38746893 10.46695258 115.3254807 10.46822691 C111.93815161 10.47012313 108.55084226 10.47747741 105.16352075 10.4845711 C97.17407227 10.50086955 89.18466888 10.5057387 81.19520569 10.50431824 C72.94494172 10.50311621 64.69493911 10.52422683 56.44474131 10.55580556 C49.36869161 10.58192808 42.29272749 10.59268724 35.21662992 10.59140742 C30.98717188 10.59089662 26.757946 10.59664433 22.52853584 10.61776352 C18.55169459 10.63707861 14.5753086 10.63731707 10.59845161 10.62273026 C9.13711383 10.62063267 7.67574806 10.6253993 6.21445847 10.63745117 C4.22319885 10.65281299 2.23178515 10.6412378 0.24050903 10.62818909 C-1.43279685 10.62982339 -1.43279685 10.62982339 -3.13990688 10.63149071 C-5.87730408 10.13371277 -5.87730408 10.13371277 -7.8065424 8.27077675 C-8.87730408 6.13371277 -8.87730408 6.13371277 -8.12730408 3.44621277 C-5.92461746 -0.62875748 -4.57507542 0.00686168 0 0 Z " fill="#356B30" transform="translate(122.87730407714844,232.8662872314453)"/>
<path d="M0 0 C1.27881042 -0.00563965 2.55762085 -0.0112793 3.87518311 -0.01708984 C5.3004156 -0.01320087 6.72564754 -0.00910451 8.15087891 -0.00482178 C9.64544852 -0.00753055 11.14001679 -0.01109084 12.63458252 -0.01544189 C16.70061752 -0.02458171 20.76655136 -0.02101512 24.8325882 -0.01468372 C29.08110331 -0.00963194 33.32960956 -0.01431288 37.578125 -0.01745605 C44.7137203 -0.02109811 51.84927425 -0.01629035 58.98486328 -0.0067749 C67.24302421 0.00411011 75.50108639 0.0005847 83.75924492 -0.01042771 C90.84037053 -0.0194938 97.92146636 -0.0207892 105.0025959 -0.01555037 C109.23585759 -0.01242693 113.46907281 -0.01203156 117.70233154 -0.01862335 C121.68153268 -0.02438635 125.6606061 -0.02041924 129.6397934 -0.00883484 C131.10315488 -0.00618263 132.56652706 -0.00696287 134.02988434 -0.01136017 C136.02154668 -0.01679473 138.01323242 -0.00878333 140.00488281 0 C141.12134186 0.00075405 142.2378009 0.0015081 143.38809204 0.002285 C146.00244141 0.25396729 146.00244141 0.25396729 148.00244141 2.25396729 C148.12744141 5.37896729 148.12744141 5.37896729 148.00244141 8.25396729 C144.57433868 10.3359091 141.90655534 10.5051644 137.9296875 10.50793457 C136.68467468 10.51357422 135.43966187 10.51921387 134.15692139 10.52502441 C132.77990664 10.52113593 131.40289248 10.5170396 130.02587891 10.51275635 C128.57366765 10.51546682 127.12145777 10.51902807 125.66925049 10.52337646 C121.72716147 10.53249604 117.7851771 10.528958 113.84308624 10.52261829 C109.71830462 10.51755608 105.59353198 10.52225037 101.46875 10.52539062 C94.54181306 10.52902962 87.61491875 10.52423292 80.68798828 10.51470947 C72.67862468 10.50382504 64.66936289 10.50735067 56.66000175 10.51836228 C49.78432277 10.52743705 42.90867445 10.52871951 36.03299141 10.52348495 C31.92600968 10.52036629 27.81907582 10.51995304 23.71209717 10.52655792 C19.85105369 10.53233351 15.99014153 10.52833062 12.12911224 10.51676941 C10.71174081 10.51412396 9.29435832 10.51488596 7.87699127 10.51929474 C5.94306329 10.52475586 4.00911117 10.51669481 2.07519531 10.50793457 C0.99267487 10.50718052 -0.08984558 10.50642647 -1.20516968 10.50564957 C-3.98340863 10.25524264 -5.63451054 9.6890843 -7.99755859 8.25396729 C-8.12255859 5.37896729 -8.12255859 5.37896729 -7.99755859 2.25396729 C-5.27280093 -0.47079038 -3.81489343 0.00257656 0 0 Z " fill="#397132" transform="translate(122.99755859375,202.74603271484375)"/>
<path d="M0 0 C1.27881042 -0.00563965 2.55762085 -0.0112793 3.87518311 -0.01708984 C5.3004156 -0.01320087 6.72564754 -0.00910451 8.15087891 -0.00482178 C9.64544852 -0.00753055 11.14001679 -0.01109084 12.63458252 -0.01544189 C16.70061752 -0.02458171 20.76655136 -0.02101512 24.8325882 -0.01468372 C29.08110331 -0.00963194 33.32960956 -0.01431288 37.578125 -0.01745605 C44.7137203 -0.02109811 51.84927425 -0.01629035 58.98486328 -0.0067749 C67.24302421 0.00411011 75.50108639 0.0005847 83.75924492 -0.01042771 C90.84037053 -0.0194938 97.92146636 -0.0207892 105.0025959 -0.01555037 C109.23585759 -0.01242693 113.46907281 -0.01203156 117.70233154 -0.01862335 C121.68153268 -0.02438635 125.6606061 -0.02041924 129.6397934 -0.00883484 C131.10315488 -0.00618263 132.56652706 -0.00696287 134.02988434 -0.01136017 C136.02154668 -0.01679473 138.01323242 -0.00878333 140.00488281 0 C141.12134186 0.00075405 142.2378009 0.0015081 143.38809204 0.002285 C146.00244141 0.25396729 146.00244141 0.25396729 148.00244141 2.25396729 C148.25244141 4.75396729 148.25244141 4.75396729 148.00244141 7.25396729 C145.27768374 9.97872495 143.81977624 9.50535801 140.00488281 9.50793457 C138.72607239 9.51357422 137.44726196 9.51921387 136.12969971 9.52502441 C134.70446721 9.52113544 133.27923527 9.51703908 131.85400391 9.51275635 C130.3594343 9.51546512 128.86486602 9.51902541 127.37030029 9.52337646 C123.30426529 9.53251628 119.23833145 9.52894969 115.17229462 9.52261829 C110.92377951 9.51756651 106.67527325 9.52224745 102.42675781 9.52539062 C95.29116251 9.52903268 88.15560856 9.52422492 81.02001953 9.51470947 C72.76185861 9.50382446 64.50379642 9.50734987 56.24563789 9.51836228 C49.16451228 9.52742837 42.08341645 9.52872377 35.00228691 9.52348495 C30.76902522 9.5203615 26.53581 9.51996613 22.30255127 9.52655792 C18.32335013 9.53232092 14.34427671 9.52835381 10.36508942 9.51676941 C8.90172793 9.5141172 7.43835576 9.51489744 5.97499847 9.51929474 C3.98333613 9.5247293 1.99165039 9.5167179 0 9.50793457 C-1.11645905 9.50718052 -2.23291809 9.50642647 -3.38320923 9.50564957 C-5.99755859 9.25396729 -5.99755859 9.25396729 -7.99755859 7.25396729 C-8.24755859 4.75396729 -8.24755859 4.75396729 -7.99755859 2.25396729 C-5.27280093 -0.47079038 -3.81489343 0.00257656 0 0 Z " fill="#275D24" transform="translate(122.99755859375,259.74603271484375)"/>
<path d="M0 0 C1.10658966 0.00607269 1.10658966 0.00607269 2.23553467 0.01226807 C3.01289978 0.00876343 3.79026489 0.00525879 4.59118652 0.00164795 C7.16803849 -0.00717493 9.74461727 -0.00131833 12.32147217 0.00543213 C14.10744276 0.00408564 15.89341299 0.00214524 17.67938232 -0.00036621 C21.42534876 -0.00331823 25.17121992 0.00098264 28.91717529 0.01031494 C33.7261005 0.02170953 38.53480248 0.01515047 43.34371948 0.00317001 C47.03250825 -0.00404651 50.72124383 -0.00176162 54.41003418 0.0034256 C56.18351264 0.00476267 57.95699587 0.00311237 59.73046875 -0.00153351 C62.20624642 -0.00659536 64.68165927 0.0011065 67.15740967 0.01226807 C67.89513611 0.0082196 68.63286255 0.00417114 69.39294434 0 C74.46794339 0.04252835 74.46794339 0.04252835 76.69647217 2.27105713 C77.00897217 5.27105713 77.00897217 5.27105713 76.69647217 8.27105713 C73.07240554 10.68710155 70.42958629 10.55358735 66.24334717 10.52984619 C65.48694946 10.53335083 64.73055176 10.53685547 63.95123291 10.54046631 C61.44955279 10.54927281 58.94815519 10.54343835 56.44647217 10.53668213 C54.70916693 10.53802909 52.97186205 10.53996988 51.23455811 10.54248047 C47.59292005 10.54543026 43.95138008 10.54113874 40.30975342 10.53179932 C35.63883659 10.52040485 30.9681496 10.5269651 26.29724121 10.53894424 C22.7096381 10.54616675 19.1220896 10.54387312 15.53448486 10.53868866 C13.81207248 10.53735324 12.08965516 10.53899611 10.36724854 10.54364777 C7.96123089 10.54871941 5.55558694 10.54099393 3.14959717 10.52984619 C2.43573853 10.53389465 1.72187988 10.53794312 0.98638916 10.54211426 C-2.67173242 10.51066973 -4.17076399 10.35956636 -7.30352783 8.27105713 C-7.61602783 5.27105713 -7.61602783 5.27105713 -7.30352783 2.27105713 C-4.82283253 -0.20963817 -3.38561825 0.02837139 0 0 Z " fill="#448239" transform="translate(194.30352783203125,164.72894287109375)"/>
<path d="M0 0 C1.10658966 0.00607269 1.10658966 0.00607269 2.23553467 0.01226807 C3.01289978 0.00876343 3.79026489 0.00525879 4.59118652 0.00164795 C7.16803849 -0.00717493 9.74461727 -0.00131833 12.32147217 0.00543213 C14.10744276 0.00408564 15.89341299 0.00214524 17.67938232 -0.00036621 C21.42534876 -0.00331823 25.17121992 0.00098264 28.91717529 0.01031494 C33.7261005 0.02170953 38.53480248 0.01515047 43.34371948 0.00317001 C47.03250825 -0.00404651 50.72124383 -0.00176162 54.41003418 0.0034256 C56.18351264 0.00476267 57.95699587 0.00311237 59.73046875 -0.00153351 C62.20624642 -0.00659536 64.68165927 0.0011065 67.15740967 0.01226807 C67.89513611 0.0082196 68.63286255 0.00417114 69.39294434 0 C74.46794339 0.04252835 74.46794339 0.04252835 76.69647217 2.27105713 C76.94647217 4.77105713 76.94647217 4.77105713 76.69647217 7.27105713 C74.21398563 9.75354367 72.78041857 9.50989307 69.39294434 9.53100586 C68.6552179 9.52538635 67.91749146 9.51976685 67.15740967 9.51397705 C66.38004456 9.5158754 65.60267944 9.51777374 64.80175781 9.51972961 C62.22489426 9.52344286 59.6483108 9.51272543 57.07147217 9.50152588 C55.28550245 9.50033426 53.49953211 9.49988088 51.71356201 9.50013733 C47.96759121 9.49857151 44.22171584 9.49027442 40.47576904 9.47686768 C35.66689482 9.4598777 30.85812557 9.45605329 26.04922485 9.45681286 C22.36044304 9.45654131 18.67168431 9.45106253 14.98291016 9.44381142 C13.20943374 9.44062252 11.43595471 9.43865683 9.66247559 9.43791771 C7.18678301 9.43575648 4.71120314 9.42701695 2.23553467 9.4163208 C1.49780823 9.41677399 0.76008179 9.41722717 0 9.41769409 C-5.07457263 9.38553473 -5.07457263 9.38553473 -7.30352783 8.27105713 C-7.42852783 5.39605713 -7.42852783 5.39605713 -7.30352783 2.27105713 C-4.82283253 -0.20963817 -3.38561825 0.02837139 0 0 Z " fill="#408233" transform="translate(194.30352783203125,134.72894287109375)"/>
<path d="M0 0 C7.55294118 2.51764706 7.55294118 2.51764706 10 6 C10.5625 9.4375 10.5625 9.4375 10 13 C7.8125 15.9375 7.8125 15.9375 5 18 C3.35 18 1.7 18 0 18 C0 12.06 0 6.12 0 0 Z " fill="#EDFDE9" transform="translate(143,151)"/>
<path d="M0 0 C0 5.28 0 10.56 0 16 C-6.40186916 13.43925234 -6.40186916 13.43925234 -8 11 C-8.5 7.5625 -8.5 7.5625 -8 4 C-5.24729252 1.09849752 -4.03996906 0 0 0 Z " fill="#E4FADF" transform="translate(136,125)"/>
</svg>
