<?xml version="1.0" encoding="UTF-8"?>
<svg version="1.1" xmlns="http://www.w3.org/2000/svg" width="467" height="490">
<path d="M0 0 C154.11 0 308.22 0 467 0 C467 161.7 467 323.4 467 490 C312.89 490 158.78 490 0 490 C0 328.3 0 166.6 0 0 Z " fill="#154234" transform="translate(0,0)"/>
<path d="M0 0 C1.85185732 2.46425434 2.25395215 4.62305583 2.87548828 7.63891602 C3.12250488 8.80084473 3.36952148 9.96277344 3.62402344 11.15991211 C3.87587402 12.37630371 4.12772461 13.59269531 4.38720703 14.84594727 C4.91950492 17.21768434 5.45466272 19.58878136 5.99267578 21.95922852 C6.52111355 24.35872743 7.04845289 26.7584685 7.57470703 29.15844727 C7.98366211 30.973125 7.98366211 30.973125 8.40087891 32.82446289 C11.77661462 48.29870002 11.77661462 48.29870002 9.26220703 52.90844727 C6.28543392 54.39683382 4.48596564 53.8788668 1.38720703 52.84594727 C-1.05074339 49.46880777 -2.1619043 46.37862487 -2.99951172 42.32641602 C-3.21542969 41.30483398 -3.43134766 40.28325195 -3.65380859 39.23071289 C-3.86714844 38.17561523 -4.08048828 37.12051758 -4.30029297 36.03344727 C-4.63770508 34.42179687 -4.63770508 34.42179687 -4.98193359 32.77758789 C-5.53387496 30.13531539 -6.07718387 27.49157011 -6.61279297 24.84594727 C-7.27279297 24.84594727 -7.93279297 24.84594727 -8.61279297 24.84594727 C-10.20554037 26.7939767 -11.6966164 28.75163094 -13.17529297 30.78344727 C-31.61925445 55.27596754 -58.38170122 68.85358045 -88.19091797 74.31860352 C-90.67556423 74.6270124 -93.10938135 74.7638682 -95.61279297 74.84594727 C-96.27085937 74.87172852 -96.92892578 74.89750977 -97.60693359 74.92407227 C-127.87703307 75.9796991 -155.45978601 66.52764059 -178.61279297 46.84594727 C-179.39009766 46.2052832 -180.16740234 45.56461914 -180.96826172 44.90454102 C-184.33002987 41.90511913 -185.48870831 40.60286368 -186.23779297 36.03344727 C-186.03154297 34.98157227 -185.82529297 33.92969727 -185.61279297 32.84594727 C-182.34143075 30.66503912 -181.40806783 30.26336409 -177.61279297 30.84594727 C-175.21044922 32.71704102 -175.21044922 32.71704102 -172.67529297 35.28344727 C-151.63761372 55.54396139 -125.00847615 62.44275498 -96.44091797 62.11938477 C-88.0608119 61.8872425 -80.51978816 60.58381026 -72.61279297 57.84594727 C-71.55874268 57.48388184 -71.55874268 57.48388184 -70.48339844 57.11450195 C-47.95546025 49.11731023 -29.05973433 34.38795006 -16.61279297 13.84594727 C-17.4295752 14.02770508 -18.24635742 14.20946289 -19.08789062 14.39672852 C-22.13954252 15.07265879 -25.19237253 15.74291006 -28.24609375 16.40942383 C-30.20912463 16.83966399 -32.17073864 17.27635242 -34.13232422 17.71313477 C-35.37626953 17.98383789 -36.62021484 18.25454102 -37.90185547 18.53344727 C-39.04348145 18.78481445 -40.18510742 19.03618164 -41.36132812 19.29516602 C-44.54399618 19.83429345 -47.39341667 20.06472288 -50.61279297 19.84594727 C-52.55029297 18.22094727 -52.55029297 18.22094727 -53.61279297 15.84594727 C-53.48779297 12.72094727 -53.48779297 12.72094727 -52.61279297 9.84594727 C-49.58477239 7.82726688 -47.66076655 7.23755116 -44.15966797 6.44360352 C-43.07210205 6.19433105 -41.98453613 5.94505859 -40.86401367 5.68823242 C-39.13090942 5.30223877 -39.13090942 5.30223877 -37.36279297 4.90844727 C-36.18869873 4.64338379 -35.01460449 4.37832031 -33.80493164 4.10522461 C-30.40946136 3.34318169 -27.01179324 2.59206928 -23.61279297 1.84594727 C-22.76217285 1.65790527 -21.91155273 1.46986328 -21.03515625 1.27612305 C-3.56537599 -2.55124619 -3.56537599 -2.55124619 0 0 Z " fill="#F1F6F0" transform="translate(341.61279296875,288.154052734375)"/>
<path d="M0 0 C2 3 2 3 2.13671875 5.7734375 C0.41546091 10.65920718 -3.06239684 12.6897645 -7.1875 15.625 C-7.94353516 16.18445313 -8.69957031 16.74390625 -9.47851562 17.3203125 C-13.57529654 20.33338294 -17.74411156 23.21704265 -22 26 C-21.35675781 26.17015625 -20.71351563 26.3403125 -20.05078125 26.515625 C-6.63321444 30.11405947 5.99124711 33.92483444 18 41 C19.05058594 41.61488281 20.10117187 42.22976562 21.18359375 42.86328125 C29.31868037 47.97283501 36.20511442 54.26400343 43 61 C43.8146875 61.80179688 44.629375 62.60359375 45.46875 63.4296875 C61.95353657 80.66905937 70.40330445 102.78739795 74 126 C74.19464844 127.19367188 74.38929688 128.38734375 74.58984375 129.6171875 C75.642348 138.29784163 77.23320635 151.9705679 72.3125 159.625 C70 161 70 161 66.875 160.875 C64 160 64 160 62 158 C61.83642578 155.41235352 61.83642578 155.41235352 61.9453125 152.12890625 C61.97294678 150.92387451 62.00058105 149.71884277 62.02905273 148.47729492 C62.07654663 146.53947144 62.07654663 146.53947144 62.125 144.5625 C62.43804338 115.67938418 53.48630475 90.86680249 33.625 69.4375 C32.75875 68.633125 31.8925 67.82875 31 67 C30.31679688 66.33484375 29.63359375 65.6696875 28.9296875 64.984375 C19.57788552 56.14376476 8.89161927 49.83314351 -3 45 C-4.32257813 44.46246094 -4.32257813 44.46246094 -5.671875 43.9140625 C-12.63150874 41.23882757 -19.71092833 39.5296621 -27 38 C-26.60208252 38.53890869 -26.20416504 39.07781738 -25.79418945 39.63305664 C-23.96640418 42.10912828 -22.13944691 44.58580973 -20.3125 47.0625 C-19.37374023 48.33383789 -19.37374023 48.33383789 -18.41601562 49.63085938 C-17.18261498 51.30337648 -15.95161495 52.97766688 -14.72314453 54.65380859 C-13.63809178 56.13118986 -12.54624547 57.60362886 -11.44482422 59.06884766 C-9.33530754 61.91485395 -8.04744205 63.6916267 -7.5 67.25 C-8 70 -8 70 -9.0625 71.9375 C-12.37582193 73.754483 -14.43106745 73.02914636 -18 72 C-20.65209972 69.49882964 -22.59338384 66.57617158 -24.625 63.5625 C-25.83810237 61.82911956 -27.05165567 60.09605462 -28.265625 58.36328125 C-28.87857422 57.47463379 -29.49152344 56.58598633 -30.12304688 55.67041016 C-31.95822262 53.05943821 -33.85859444 50.51556735 -35.796875 47.98046875 C-36.39806152 47.18503662 -36.99924805 46.38960449 -37.61865234 45.57006836 C-38.76462296 44.05628483 -39.92078836 42.5501497 -41.08837891 41.05297852 C-43.53545256 37.7591944 -44.9061547 35.41758914 -45.81640625 31.3671875 C-44.60269939 26.36137261 -41.68544097 24.70249113 -37.5625 21.875 C-36.0059614 20.75075973 -34.44998857 19.6257358 -32.89453125 18.5 C-32.08838379 17.92765625 -31.28223633 17.3553125 -30.45166016 16.765625 C-26.47464091 13.90147411 -22.62017777 10.8810212 -18.75 7.875 C-6.13248414 -1.90788395 -6.13248414 -1.90788395 0 0 Z " fill="#7DCF61" transform="translate(278,106)"/>
<path d="M0 0 C1.9375 1.0625 1.9375 1.0625 3 3 C3.12109375 6.30859375 3.12109375 6.30859375 2 10 C-0.68731596 12.21698716 -3.72112309 13.55609575 -6.875 15 C-8.6252026 15.86283997 -10.37391251 16.72871456 -12.12109375 17.59765625 C-12.96655762 18.01031738 -13.81202148 18.42297852 -14.68310547 18.84814453 C-38.03416279 30.4572371 -54.47619832 52.69465557 -62.74609375 77.04296875 C-68.83228989 95.94892785 -70.03543922 118.88777582 -64 138 C-59.64725301 131.05267442 -55.76840933 123.89450122 -51.98461914 116.62719727 C-49.09664092 111.09664092 -49.09664092 111.09664092 -48 110 C-41.81454545 109.54181818 -41.81454545 109.54181818 -39 111.125 C-37.45586276 114.02025733 -38.23528878 115.83870578 -39 119 C-40.19338574 121.71620704 -41.61724273 124.28579246 -43.0625 126.875 C-43.88189761 128.3792894 -44.69956493 129.88452241 -45.515625 131.390625 C-45.93005859 132.15310547 -46.34449219 132.91558594 -46.77148438 133.70117188 C-49.03478008 137.93630549 -51.1467534 142.24664865 -53.26000977 146.55810547 C-59.20232963 158.60116481 -59.20232963 158.60116481 -62 160 C-66.99815684 160.46140268 -69.92725209 159.35555923 -74.2890625 156.96484375 C-74.87360199 156.64850479 -75.45814148 156.33216583 -76.06039429 156.00624084 C-77.92186771 154.9949139 -79.77322332 153.96645299 -81.625 152.9375 C-82.84444862 152.27297994 -84.06449692 151.6095591 -85.28515625 150.94726562 C-88.8728508 148.99315781 -92.43990176 147.00387058 -96 145 C-96.58825562 144.67010071 -97.17651123 144.34020142 -97.78259277 144.00030518 C-99.47091183 143.0500167 -101.15355376 142.08966344 -102.8359375 141.12890625 C-103.80837402 140.57404541 -104.78081055 140.01918457 -105.78271484 139.44750977 C-108 138 -108 138 -109 136 C-109.1875 133 -109.1875 133 -109 130 C-107 128 -107 128 -103.74584961 127.69726562 C-99.73104218 128.0217368 -97.55155638 128.88453047 -94.06640625 130.84375 C-92.47602539 131.72353516 -92.47602539 131.72353516 -90.85351562 132.62109375 C-89.76748047 133.24113281 -88.68144531 133.86117187 -87.5625 134.5 C-86.44939453 135.12003906 -85.33628906 135.74007812 -84.18945312 136.37890625 C-81.45197387 137.90625519 -78.72286784 139.44679916 -76 141 C-76.20496094 140.20335937 -76.40992188 139.40671875 -76.62109375 138.5859375 C-76.89050781 137.52632812 -77.15992187 136.46671875 -77.4375 135.375 C-77.70433594 134.33085937 -77.97117187 133.28671875 -78.24609375 132.2109375 C-83.54628462 109.63706759 -80.59048668 84.02941911 -71 63 C-70.49726563 61.87464844 -69.99453125 60.74929687 -69.4765625 59.58984375 C-57.08513557 33.3235092 -34.87568194 11.67577432 -7.86328125 0.5859375 C-5.08870144 -0.28657188 -2.86492348 -0.47748725 0 0 Z " fill="#F0F6EF" transform="translate(204,138)"/>
</svg>
