<?xml version="1.0" encoding="UTF-8"?>
<svg version="1.1" xmlns="http://www.w3.org/2000/svg" width="486" height="388">
<path d="M0 0 C160.38 0 320.76 0 486 0 C486 128.04 486 256.08 486 388 C325.62 388 165.24 388 0 388 C0 259.96 0 131.92 0 0 Z " fill="#154234" transform="translate(0,0)"/>
<path d="M0 0 C0.87269531 -0.00773437 1.74539062 -0.01546875 2.64453125 -0.0234375 C17.70435822 0.02118421 17.70435822 0.02118421 22.25561523 3.6496582 C24.123542 6.05190658 23.94761676 8.18941801 24.0625 11.1875 C24.22145672 15.07471443 24.38987939 17.92768244 26.5 21.25 C29.60741545 23.98075903 31.98453684 24.48384561 36 24.25 C40.54086336 23.57113338 42.58950648 21.84531552 45.5 18.25 C45.95375 17.63125 46.4075 17.0125 46.875 16.375 C48.5 15.25 48.5 15.25 51.5625 15.0625 C57.2055649 16.1168306 61.30288324 20.61294866 65.5 24.25 C66.33015625 24.88292969 67.1603125 25.51585938 68.015625 26.16796875 C70.76876303 28.47523694 72.88339582 30.94606899 75.125 33.75 C75.88039063 34.6884375 76.63578125 35.626875 77.4140625 36.59375 C78.10242188 37.4703125 78.79078125 38.346875 79.5 39.25 C80.08394531 39.95253906 80.66789063 40.65507812 81.26953125 41.37890625 C82.5 43.25 82.5 43.25 82.5625 46.6875 C81.16285007 51.38044388 79.39625015 52.40898427 75.5 55.25 C73.74227272 58.76545456 73.98509947 62.41399103 74.5 66.25 C76.21893547 70.11884519 76.21893547 70.11884519 79.5 72.25 C83.1400414 72.77304333 86.64356833 72.93755888 90.3203125 72.94921875 C93.5 73.25 93.5 73.25 95.35546875 74.4921875 C100.89529801 83.00045769 98.89888771 97.4919883 98.5 107.25 C98.4685791 108.06823242 98.4371582 108.88646484 98.40478516 109.72949219 C98.14960301 113.38884912 97.87505017 115.67727634 95.83984375 118.78515625 C92.78234534 120.69928297 90.6500927 120.68335249 87.0625 120.6875 C81.81849384 120.92778935 81.81849384 120.92778935 77.25 123.4375 C74.90516697 127.20598166 73.995094 129.80721669 74.91015625 134.234375 C76.13924373 138.14979139 77.37914004 140.42382534 80.75 142.8125 C83.5 145.25 83.5 145.25 83.8125 148.5 C82.00945502 153.65155708 79.02477157 157.14631585 75.5 161.25 C75.03464844 161.848125 74.56929687 162.44625 74.08984375 163.0625 C68.97315824 169.5068386 62.31949833 174.70366778 55.5 179.25 C52.12725494 179.25 49.57803975 179.24078327 47.00390625 176.875 C45.78643092 175.37212245 44.63953985 173.81279751 43.5 172.25 C40.04260443 170.52130221 36.28024432 170.76033105 32.5 171.25 C29.62970131 173.04393668 28.00868362 174.23263276 26.5 177.25 C26.26201499 180.55975448 26.11732114 183.86835735 25.9765625 187.18359375 C25.45000895 190.57166371 25.10008709 191.19383834 22.5 193.25 C15.44283972 195.72931611 7.75844019 195.55572408 0.375 195.5 C-0.65753906 195.50773438 -1.69007813 195.51546875 -2.75390625 195.5234375 C-8.65941654 195.50839161 -13.89649595 195.19116768 -19.5 193.25 C-21.8531473 189.72027906 -21.72171605 188.05106167 -21.8125 183.875 C-22.09519064 179.57235268 -22.23074765 177.66179771 -24.625 174 C-28.15180131 171.85325138 -30.36300682 171.25 -34.5 171.25 C-38.87269017 172.53165057 -41.391577 173.84309324 -44 177.5 C-46.5 180.25 -46.5 180.25 -49.6875 180.625 C-57.09211735 178.84270698 -63.44228929 171.58110048 -68.5 166.25 C-69.05300781 165.71761719 -69.60601562 165.18523437 -70.17578125 164.63671875 C-79.47946186 155.65179379 -79.47946186 155.65179379 -81.25 149.75 C-80.17380904 146.16269681 -77.85772894 144.28704192 -75.12890625 141.80078125 C-72.41045528 139.21271162 -72.24279074 137.08155826 -72.0625 133.4375 C-72.14129028 129.54300884 -72.34002151 128.47396988 -74.6875 125.1875 C-78.81166647 122.34222169 -83.72858761 122.64182713 -88.57421875 122.5859375 C-91.5 122.25 -91.5 122.25 -93.10961914 121.00561523 C-97.92732595 114.92236156 -96.80502772 104.38577186 -96.75 97.0625 C-96.75773437 96.02158203 -96.76546875 94.98066406 -96.7734375 93.90820312 C-96.74231034 81.65188516 -96.74231034 81.65188516 -93.24609375 76.34765625 C-90.70878122 74.75261191 -88.53487707 74.80139826 -85.5625 74.6875 C-80.23631105 74.47238779 -80.23631105 74.47238779 -75.5 72.25 C-72.90487031 68.17193906 -71.88514367 65.06637456 -72.5 60.25 C-74.01772915 56.79295028 -75.75111501 55.0160644 -78.75 52.875 C-81.5 50.25 -81.5 50.25 -81.875 47.0625 C-79.13574779 36.19914082 -65.16996778 24.81517657 -56.6875 17.9375 C-53.5 16.25 -53.5 16.25 -49.9375 16 C-46.35846193 17.30146839 -45.75554248 17.88126335 -43.5625 20.75 C-41.3921931 23.56271774 -40.04761269 24.79607269 -36.5 25.375 C-32.49685493 25.52808394 -29.81691246 24.56412497 -26.5 22.25 C-23.62544076 18.39930238 -23.21452851 15.87096344 -23.5 11.125 C-23.82622201 5.67437387 -23.82622201 5.67437387 -22.27148438 3.65185547 C-16.57451295 -0.85641492 -6.9139741 -0.06127599 0 0 Z " fill="#164335" transform="translate(204.5,87.75)"/>
<path d="M0 0 C0.87269531 -0.00773437 1.74539062 -0.01546875 2.64453125 -0.0234375 C17.70435822 0.02118421 17.70435822 0.02118421 22.25561523 3.6496582 C24.123542 6.05190658 23.94761676 8.18941801 24.0625 11.1875 C24.22145672 15.07471443 24.38987939 17.92768244 26.5 21.25 C29.60741545 23.98075903 31.98453684 24.48384561 36 24.25 C40.54086336 23.57113338 42.58950648 21.84531552 45.5 18.25 C45.95375 17.63125 46.4075 17.0125 46.875 16.375 C48.5 15.25 48.5 15.25 51.5625 15.0625 C57.2055649 16.1168306 61.30288324 20.61294866 65.5 24.25 C66.33015625 24.88292969 67.1603125 25.51585938 68.015625 26.16796875 C70.76876303 28.47523694 72.88339582 30.94606899 75.125 33.75 C75.88039063 34.6884375 76.63578125 35.626875 77.4140625 36.59375 C78.10242188 37.4703125 78.79078125 38.346875 79.5 39.25 C80.08394531 39.95253906 80.66789063 40.65507812 81.26953125 41.37890625 C82.5 43.25 82.5 43.25 82.5625 46.6875 C81.16285007 51.38044388 79.39625015 52.40898427 75.5 55.25 C73.74227272 58.76545456 73.98509947 62.41399103 74.5 66.25 C76.21893547 70.11884519 76.21893547 70.11884519 79.5 72.25 C83.1400414 72.77304333 86.64356833 72.93755888 90.3203125 72.94921875 C93.5 73.25 93.5 73.25 95.35546875 74.4921875 C100.89529801 83.00045769 98.89888771 97.4919883 98.5 107.25 C98.4685791 108.06823242 98.4371582 108.88646484 98.40478516 109.72949219 C98.14960301 113.38884912 97.87505017 115.67727634 95.83984375 118.78515625 C92.78234534 120.69928297 90.6500927 120.68335249 87.0625 120.6875 C81.81849384 120.92778935 81.81849384 120.92778935 77.25 123.4375 C74.90516697 127.20598166 73.995094 129.80721669 74.91015625 134.234375 C76.13924373 138.14979139 77.37914004 140.42382534 80.75 142.8125 C83.5 145.25 83.5 145.25 83.8125 148.5 C82.00945502 153.65155708 79.02477157 157.14631585 75.5 161.25 C75.03464844 161.848125 74.56929687 162.44625 74.08984375 163.0625 C68.97315824 169.5068386 62.31949833 174.70366778 55.5 179.25 C52.12725494 179.25 49.57803975 179.24078327 47.00390625 176.875 C45.78643092 175.37212245 44.63953985 173.81279751 43.5 172.25 C40.04260443 170.52130221 36.28024432 170.76033105 32.5 171.25 C29.62970131 173.04393668 28.00868362 174.23263276 26.5 177.25 C26.26201499 180.55975448 26.11732114 183.86835735 25.9765625 187.18359375 C25.45000895 190.57166371 25.10008709 191.19383834 22.5 193.25 C15.44283972 195.72931611 7.75844019 195.55572408 0.375 195.5 C-0.65753906 195.50773438 -1.69007813 195.51546875 -2.75390625 195.5234375 C-8.65941654 195.50839161 -13.89649595 195.19116768 -19.5 193.25 C-21.8531473 189.72027906 -21.72171605 188.05106167 -21.8125 183.875 C-22.09519064 179.57235268 -22.23074765 177.66179771 -24.625 174 C-28.15180131 171.85325138 -30.36300682 171.25 -34.5 171.25 C-38.87269017 172.53165057 -41.391577 173.84309324 -44 177.5 C-46.5 180.25 -46.5 180.25 -49.6875 180.625 C-57.09211735 178.84270698 -63.44228929 171.58110048 -68.5 166.25 C-69.05300781 165.71761719 -69.60601562 165.18523437 -70.17578125 164.63671875 C-79.47946186 155.65179379 -79.47946186 155.65179379 -81.25 149.75 C-80.17380904 146.16269681 -77.85772894 144.28704192 -75.12890625 141.80078125 C-72.41045528 139.21271162 -72.24279074 137.08155826 -72.0625 133.4375 C-72.14129028 129.54300884 -72.34002151 128.47396988 -74.6875 125.1875 C-78.81166647 122.34222169 -83.72858761 122.64182713 -88.57421875 122.5859375 C-91.5 122.25 -91.5 122.25 -93.10961914 121.00561523 C-97.92732595 114.92236156 -96.80502772 104.38577186 -96.75 97.0625 C-96.75773437 96.02158203 -96.76546875 94.98066406 -96.7734375 93.90820312 C-96.74231034 81.65188516 -96.74231034 81.65188516 -93.24609375 76.34765625 C-90.70878122 74.75261191 -88.53487707 74.80139826 -85.5625 74.6875 C-80.23631105 74.47238779 -80.23631105 74.47238779 -75.5 72.25 C-72.90487031 68.17193906 -71.88514367 65.06637456 -72.5 60.25 C-74.01772915 56.79295028 -75.75111501 55.0160644 -78.75 52.875 C-81.5 50.25 -81.5 50.25 -81.875 47.0625 C-79.13574779 36.19914082 -65.16996778 24.81517657 -56.6875 17.9375 C-53.5 16.25 -53.5 16.25 -49.9375 16 C-46.35846193 17.30146839 -45.75554248 17.88126335 -43.5625 20.75 C-41.3921931 23.56271774 -40.04761269 24.79607269 -36.5 25.375 C-32.49685493 25.52808394 -29.81691246 24.56412497 -26.5 22.25 C-23.62544076 18.39930238 -23.21452851 15.87096344 -23.5 11.125 C-23.82622201 5.67437387 -23.82622201 5.67437387 -22.27148438 3.65185547 C-16.57451295 -0.85641492 -6.9139741 -0.06127599 0 0 Z M-10.5 13.25 C-11.16 16.22 -11.82 19.19 -12.5 22.25 C-15.39928024 28.73014566 -19.65797472 33.15480525 -26.1875 36 C-31.96048011 37.94959929 -37.53444298 38.46146159 -43.25390625 36.125 C-44.98170316 35.23972415 -46.69016382 34.31507388 -48.37109375 33.34375 C-50.54583286 32.0215104 -50.54583286 32.0215104 -53.5 32.25 C-58.42943552 35.9084945 -62.9148281 40.26193475 -66.5 45.25 C-65.54533391 47.21093574 -64.58319842 49.1163967 -63.4296875 50.96875 C-59.54475722 57.52996559 -59.61065829 64.1643469 -60.90234375 71.55078125 C-62.80549324 77.9568073 -67.69714006 82.11821198 -73.40234375 85.31640625 C-76.7549942 86.83500284 -79.86359087 87.52271817 -83.5 88.25 C-83.5 95.18 -83.5 102.11 -83.5 109.25 C-81.685 109.600625 -79.87 109.95125 -78 110.3125 C-70.21924009 112.27604083 -65.13796049 116.04089918 -61 122.9375 C-58.35773635 129.06328613 -58.20450039 135.93728645 -60.62890625 142.13671875 C-61.50560988 143.84766458 -62.42795137 145.53645106 -63.40625 147.19140625 C-64.73459803 149.30302784 -64.73459803 149.30302784 -64.5 152.25 C-60.8415055 157.17943552 -56.48806525 161.6648281 -51.5 165.25 C-49.53906426 164.29533391 -47.6336033 163.33319842 -45.78125 162.1796875 C-39.21159827 158.28976213 -32.3263613 158.0546164 -24.9765625 159.875 C-18.13683834 162.48950207 -13.49108357 167.44884045 -10.125 173.875 C-9.40128954 176.62509977 -8.96750648 179.4449611 -8.5 182.25 C-1.57 182.25 5.36 182.25 12.5 182.25 C13.16 179.28 13.82 176.31 14.5 173.25 C16.75931333 168.20023651 19.85592467 164.30829351 24.5 161.25 C25.345625 160.6725 26.19125 160.095 27.0625 159.5 C33.10090838 157.30421513 39.34992706 157.02568015 45.39453125 159.375 C47.10194622 160.25495618 48.78787474 161.17879295 50.44140625 162.15625 C52.55302784 163.48459803 52.55302784 163.48459803 55.5 163.25 C60.56116105 159.67118737 64.7052999 155.1119595 68.5 150.25 C67.55021922 148.29482065 66.59660599 146.40196051 65.4296875 144.56640625 C61.72652056 138.40817679 61.65529207 132.27163464 62.5 125.25 C64.23602841 118.6747924 68.80290934 113.79777639 74.5 110.25 C78.11379985 108.90732338 81.71763821 107.98005145 85.5 107.25 C86.44219655 104.06447833 86.6342896 101.19138721 86.625 97.875 C86.62757813 96.95976562 86.63015625 96.04453125 86.6328125 95.1015625 C86.49234509 92.08564456 86.05121867 89.2160814 85.5 86.25 C84.64277344 86.03085938 83.78554688 85.81171875 82.90234375 85.5859375 C74.87908432 83.36077198 68.85089442 81.38670043 64.1953125 74.25 C61.19832206 68.46270813 60.41038435 62.67062774 61.5 56.25 C62.61751518 53.46201231 63.89160769 50.93547129 65.40625 48.34375 C66.73150903 46.20052873 66.73150903 46.20052873 66.5 43.25 C62.92118737 38.18883895 58.3619595 34.0447001 53.5 30.25 C51.50010516 31.24101932 49.51644322 32.24091645 47.5625 33.3203125 C40.69880698 36.83015552 33.66391724 37.71181242 26.16796875 35.58984375 C19.9039136 32.82311958 15.79009164 28.45119013 13.2421875 22.12890625 C12.25331871 19.19341812 11.36860293 16.22329464 10.5 13.25 C3.57 13.25 -3.36 13.25 -10.5 13.25 Z " fill="#E7F1E4" transform="translate(204.5,87.75)"/>
<path d="M0 0 C0.78890625 -0.00257813 1.5778125 -0.00515625 2.390625 -0.0078125 C3.21046875 -0.00007812 4.0303125 0.00765625 4.875 0.015625 C6.10476563 0.00402344 6.10476563 0.00402344 7.359375 -0.0078125 C8.54273438 -0.00394531 8.54273438 -0.00394531 9.75 0 C10.46929687 0.00225586 11.18859375 0.00451172 11.9296875 0.00683594 C13.875 0.265625 13.875 0.265625 16.875 2.265625 C17.16796875 5.3046875 17.16796875 5.3046875 17.0625 8.890625 C17.02189453 10.67339844 17.02189453 10.67339844 16.98046875 12.4921875 C16.94566406 13.40742188 16.91085937 14.32265625 16.875 15.265625 C20.0313555 16.38677104 20.0313555 16.38677104 23.875 16.265625 C25.8745116 14.58069174 27.40835435 12.80341986 29.00390625 10.734375 C30.875 9.265625 30.875 9.265625 33.69140625 9.1875 C37.90266627 10.6136445 40.20628893 12.8591839 43.25 16.015625 C43.79527344 16.5415625 44.34054687 17.0675 44.90234375 17.609375 C47.21619319 19.95222004 48.7510443 21.68716505 49.44921875 24.9453125 C48.72273646 27.88089401 47.65021176 28.76496586 45.3125 30.640625 C43.35089085 32.34330186 43.35089085 32.34330186 41.875 34.265625 C41.75385396 38.1092695 41.75385396 38.1092695 42.875 41.265625 C44.24785156 41.21341797 44.24785156 41.21341797 45.6484375 41.16015625 C46.83695312 41.13308594 48.02546875 41.10601562 49.25 41.078125 C50.43335938 41.04332031 51.61671875 41.00851563 52.8359375 40.97265625 C53.83882813 41.06933594 54.84171875 41.16601562 55.875 41.265625 C57.9081579 44.31536185 58.1298508 44.95519368 58.140625 48.390625 C58.14449219 49.57398438 58.14449219 49.57398438 58.1484375 50.78125 C58.14070313 51.60109375 58.13296875 52.4209375 58.125 53.265625 C58.13660156 54.49539063 58.13660156 54.49539063 58.1484375 55.75 C58.14585937 56.53890625 58.14328125 57.3278125 58.140625 58.140625 C58.13836914 58.85992187 58.13611328 59.57921875 58.13378906 60.3203125 C57.875 62.265625 57.875 62.265625 55.875 65.265625 C52.8359375 65.55859375 52.8359375 65.55859375 49.25 65.453125 C48.06148438 65.42605469 46.87296875 65.39898437 45.6484375 65.37109375 C44.73320312 65.33628906 43.81796875 65.30148437 42.875 65.265625 C41.75385396 68.4219805 41.75385396 68.4219805 41.875 72.265625 C43.51835512 74.30046001 45.27038513 75.8568342 47.30859375 77.4921875 C48.875 79.265625 48.875 79.265625 49.484375 81.55078125 C48.52844487 85.80957253 45.75845165 88.1065569 42.6875 91.078125 C41.8202832 91.9743457 41.8202832 91.9743457 40.93554688 92.88867188 C36.69465393 97.08164512 36.69465393 97.08164512 33.16015625 97.875 C30.27262219 97.10499092 29.35540068 96.0155878 27.5 93.703125 C25.79732314 91.74151585 25.79732314 91.74151585 23.875 90.265625 C20.0313555 90.14447896 20.0313555 90.14447896 16.875 91.265625 C16.89820313 92.18085938 16.92140625 93.09609375 16.9453125 94.0390625 C16.96335937 95.22757812 16.98140625 96.41609375 17 97.640625 C17.02320313 98.82398438 17.04640625 100.00734375 17.0703125 101.2265625 C16.875 104.265625 16.875 104.265625 14.875 106.265625 C12.84375 106.52441406 12.84375 106.52441406 10.375 106.53125 C9.488125 106.53382813 8.60125 106.53640625 7.6875 106.5390625 C6.759375 106.53132813 5.83125 106.52359375 4.875 106.515625 C3.946875 106.52335937 3.01875 106.53109375 2.0625 106.5390625 C0.7321875 106.53519531 0.7321875 106.53519531 -0.625 106.53125 C-1.4396875 106.52899414 -2.254375 106.52673828 -3.09375 106.52441406 C-5.125 106.265625 -5.125 106.265625 -7.125 104.265625 C-7.3203125 101.2265625 -7.3203125 101.2265625 -7.25 97.640625 C-7.23195313 96.45210938 -7.21390625 95.26359375 -7.1953125 94.0390625 C-7.17210937 93.12382812 -7.14890625 92.20859375 -7.125 91.265625 C-10.2813555 90.14447896 -10.2813555 90.14447896 -14.125 90.265625 C-16.15983501 91.90898012 -17.7162092 93.66101013 -19.3515625 95.69921875 C-21.125 97.265625 -21.125 97.265625 -23.4453125 97.83984375 C-27.42515577 96.98702019 -29.64329229 94.47276314 -32.375 91.640625 C-32.91640625 91.11855469 -33.4578125 90.59648437 -34.015625 90.05859375 C-36.61186431 87.42990144 -38.00130316 85.64651792 -39.16015625 82.078125 C-39.125 79.265625 -39.125 79.265625 -37.98046875 77.3671875 C-37.43003906 76.87992187 -36.87960937 76.39265625 -36.3125 75.890625 C-35.76980469 75.38789063 -35.22710937 74.88515625 -34.66796875 74.3671875 C-33.125 73.265625 -33.125 73.265625 -31.125 73.265625 C-31.785 70.625625 -32.445 67.985625 -33.125 65.265625 C-34.51525391 65.28302734 -34.51525391 65.28302734 -35.93359375 65.30078125 C-37.13113281 65.30980469 -38.32867187 65.31882812 -39.5625 65.328125 C-40.75746094 65.33972656 -41.95242188 65.35132813 -43.18359375 65.36328125 C-46.125 65.265625 -46.125 65.265625 -47.125 64.265625 C-47.2241657 62.64304956 -47.25579777 61.01622669 -47.2578125 59.390625 C-47.25910156 58.40578125 -47.26039063 57.4209375 -47.26171875 56.40625 C-47.25785156 55.36984375 -47.25398438 54.3334375 -47.25 53.265625 C-47.25580078 51.71101563 -47.25580078 51.71101563 -47.26171875 50.125 C-47.26042969 49.14015625 -47.25914062 48.1553125 -47.2578125 47.140625 C-47.25668457 46.23054688 -47.25555664 45.32046875 -47.25439453 44.3828125 C-47.125 42.265625 -47.125 42.265625 -46.125 41.265625 C-43.93860547 41.19303554 -41.74999611 41.18188717 -39.5625 41.203125 C-37.76619141 41.21666016 -37.76619141 41.21666016 -35.93359375 41.23046875 C-35.00675781 41.24207031 -34.07992188 41.25367188 -33.125 41.265625 C-32.00385396 38.1092695 -32.00385396 38.1092695 -32.125 34.265625 C-33.76835512 32.23078999 -35.52038513 30.6744158 -37.55859375 29.0390625 C-39.125 27.265625 -39.125 27.265625 -39.73046875 24.984375 C-38.78098233 20.7208747 -36.05182142 18.38937127 -33 15.390625 C-32.14535156 14.48183594 -32.14535156 14.48183594 -31.2734375 13.5546875 C-27.00556797 9.28681797 -27.00556797 9.28681797 -22.87890625 9.1875 C-20.06412498 10.28945692 -18.98935983 11.03561063 -17.1875 13.390625 C-15.78098851 15.05555554 -15.78098851 15.05555554 -14.125 16.265625 C-10.33165415 16.29741339 -10.33165415 16.29741339 -7.125 15.265625 C-7.17720703 13.89277344 -7.17720703 13.89277344 -7.23046875 12.4921875 C-7.25753906 11.30367187 -7.28460938 10.11515625 -7.3125 8.890625 C-7.34730469 7.70726562 -7.38210938 6.52390625 -7.41796875 5.3046875 C-7.32128906 4.30179688 -7.22460938 3.29890625 -7.125 2.265625 C-4.07526315 0.2324671 -3.43543132 0.0107742 0 0 Z " fill="#174534" transform="translate(337.125,204.734375)"/>
<path d="M0 0 C8.83923157 5.32334675 16.38183574 12.70984061 19.1015625 22.8671875 C21.17374623 34.6908241 20.15072651 44.96253517 13.1796875 54.99609375 C7.70647475 61.61165136 0.43668481 68.05993162 -8.2109375 69.6796875 C-21.3919565 70.8035428 -31.49329409 68.79453548 -41.953125 60.2578125 C-49.08897571 53.82635907 -52.5953507 45.23128984 -53.484375 35.76953125 C-53.83752495 24.80830004 -51.07052533 16.68869703 -44.0234375 8.2421875 C-39.63698815 3.67998726 -35.05247245 1.00082722 -29.2109375 -1.3203125 C-28.43363281 -1.68253906 -27.65632813 -2.04476562 -26.85546875 -2.41796875 C-18.18089659 -5.37783015 -8.09835705 -3.86363665 0 0 Z " fill="#E8F2E5" transform="translate(222.2109375,152.3203125)"/>
<path d="M0 0 C0.78890625 -0.00257813 1.5778125 -0.00515625 2.390625 -0.0078125 C3.21046875 -0.00007812 4.0303125 0.00765625 4.875 0.015625 C6.10476563 0.00402344 6.10476563 0.00402344 7.359375 -0.0078125 C8.54273438 -0.00394531 8.54273438 -0.00394531 9.75 0 C10.46929687 0.00225586 11.18859375 0.00451172 11.9296875 0.00683594 C13.875 0.265625 13.875 0.265625 16.875 2.265625 C17.16796875 5.3046875 17.16796875 5.3046875 17.0625 8.890625 C17.02189453 10.67339844 17.02189453 10.67339844 16.98046875 12.4921875 C16.94566406 13.40742188 16.91085937 14.32265625 16.875 15.265625 C20.0313555 16.38677104 20.0313555 16.38677104 23.875 16.265625 C25.8745116 14.58069174 27.40835435 12.80341986 29.00390625 10.734375 C30.875 9.265625 30.875 9.265625 33.69140625 9.1875 C37.90266627 10.6136445 40.20628893 12.8591839 43.25 16.015625 C43.79527344 16.5415625 44.34054687 17.0675 44.90234375 17.609375 C47.21619319 19.95222004 48.7510443 21.68716505 49.44921875 24.9453125 C48.72273646 27.88089401 47.65021176 28.76496586 45.3125 30.640625 C43.35089085 32.34330186 43.35089085 32.34330186 41.875 34.265625 C41.75385396 38.1092695 41.75385396 38.1092695 42.875 41.265625 C44.24785156 41.21341797 44.24785156 41.21341797 45.6484375 41.16015625 C46.83695312 41.13308594 48.02546875 41.10601562 49.25 41.078125 C50.43335938 41.04332031 51.61671875 41.00851563 52.8359375 40.97265625 C53.83882813 41.06933594 54.84171875 41.16601562 55.875 41.265625 C57.9081579 44.31536185 58.1298508 44.95519368 58.140625 48.390625 C58.14449219 49.57398438 58.14449219 49.57398438 58.1484375 50.78125 C58.14070313 51.60109375 58.13296875 52.4209375 58.125 53.265625 C58.13660156 54.49539063 58.13660156 54.49539063 58.1484375 55.75 C58.14585937 56.53890625 58.14328125 57.3278125 58.140625 58.140625 C58.13836914 58.85992187 58.13611328 59.57921875 58.13378906 60.3203125 C57.875 62.265625 57.875 62.265625 55.875 65.265625 C52.8359375 65.55859375 52.8359375 65.55859375 49.25 65.453125 C48.06148438 65.42605469 46.87296875 65.39898437 45.6484375 65.37109375 C44.73320312 65.33628906 43.81796875 65.30148437 42.875 65.265625 C41.75385396 68.4219805 41.75385396 68.4219805 41.875 72.265625 C43.51835512 74.30046001 45.27038513 75.8568342 47.30859375 77.4921875 C48.875 79.265625 48.875 79.265625 49.484375 81.55078125 C48.52844487 85.80957253 45.75845165 88.1065569 42.6875 91.078125 C41.8202832 91.9743457 41.8202832 91.9743457 40.93554688 92.88867188 C36.69465393 97.08164512 36.69465393 97.08164512 33.16015625 97.875 C30.27262219 97.10499092 29.35540068 96.0155878 27.5 93.703125 C25.79732314 91.74151585 25.79732314 91.74151585 23.875 90.265625 C20.0313555 90.14447896 20.0313555 90.14447896 16.875 91.265625 C16.89820313 92.18085938 16.92140625 93.09609375 16.9453125 94.0390625 C16.96335937 95.22757812 16.98140625 96.41609375 17 97.640625 C17.02320313 98.82398438 17.04640625 100.00734375 17.0703125 101.2265625 C16.875 104.265625 16.875 104.265625 14.875 106.265625 C12.84375 106.52441406 12.84375 106.52441406 10.375 106.53125 C9.488125 106.53382813 8.60125 106.53640625 7.6875 106.5390625 C6.759375 106.53132813 5.83125 106.52359375 4.875 106.515625 C3.946875 106.52335937 3.01875 106.53109375 2.0625 106.5390625 C0.7321875 106.53519531 0.7321875 106.53519531 -0.625 106.53125 C-1.4396875 106.52899414 -2.254375 106.52673828 -3.09375 106.52441406 C-5.125 106.265625 -5.125 106.265625 -7.125 104.265625 C-7.3203125 101.2265625 -7.3203125 101.2265625 -7.25 97.640625 C-7.23195313 96.45210938 -7.21390625 95.26359375 -7.1953125 94.0390625 C-7.17210937 93.12382812 -7.14890625 92.20859375 -7.125 91.265625 C-10.2813555 90.14447896 -10.2813555 90.14447896 -14.125 90.265625 C-16.15983501 91.90898012 -17.7162092 93.66101013 -19.3515625 95.69921875 C-21.125 97.265625 -21.125 97.265625 -23.4453125 97.83984375 C-27.42515577 96.98702019 -29.64329229 94.47276314 -32.375 91.640625 C-32.91640625 91.11855469 -33.4578125 90.59648437 -34.015625 90.05859375 C-36.61186431 87.42990144 -38.00130316 85.64651792 -39.16015625 82.078125 C-39.125 79.265625 -39.125 79.265625 -37.98046875 77.3671875 C-37.43003906 76.87992187 -36.87960937 76.39265625 -36.3125 75.890625 C-35.76980469 75.38789063 -35.22710937 74.88515625 -34.66796875 74.3671875 C-33.125 73.265625 -33.125 73.265625 -31.125 73.265625 C-31.785 70.625625 -32.445 67.985625 -33.125 65.265625 C-34.51525391 65.28302734 -34.51525391 65.28302734 -35.93359375 65.30078125 C-37.13113281 65.30980469 -38.32867187 65.31882812 -39.5625 65.328125 C-40.75746094 65.33972656 -41.95242188 65.35132813 -43.18359375 65.36328125 C-46.125 65.265625 -46.125 65.265625 -47.125 64.265625 C-47.2241657 62.64304956 -47.25579777 61.01622669 -47.2578125 59.390625 C-47.25910156 58.40578125 -47.26039063 57.4209375 -47.26171875 56.40625 C-47.25785156 55.36984375 -47.25398438 54.3334375 -47.25 53.265625 C-47.25580078 51.71101563 -47.25580078 51.71101563 -47.26171875 50.125 C-47.26042969 49.14015625 -47.25914062 48.1553125 -47.2578125 47.140625 C-47.25668457 46.23054688 -47.25555664 45.32046875 -47.25439453 44.3828125 C-47.125 42.265625 -47.125 42.265625 -46.125 41.265625 C-43.93860547 41.19303554 -41.74999611 41.18188717 -39.5625 41.203125 C-37.76619141 41.21666016 -37.76619141 41.21666016 -35.93359375 41.23046875 C-35.00675781 41.24207031 -34.07992188 41.25367188 -33.125 41.265625 C-32.00385396 38.1092695 -32.00385396 38.1092695 -32.125 34.265625 C-33.76835512 32.23078999 -35.52038513 30.6744158 -37.55859375 29.0390625 C-39.125 27.265625 -39.125 27.265625 -39.73046875 24.984375 C-38.78098233 20.7208747 -36.05182142 18.38937127 -33 15.390625 C-32.14535156 14.48183594 -32.14535156 14.48183594 -31.2734375 13.5546875 C-27.00556797 9.28681797 -27.00556797 9.28681797 -22.87890625 9.1875 C-20.06412498 10.28945692 -18.98935983 11.03561063 -17.1875 13.390625 C-15.78098851 15.05555554 -15.78098851 15.05555554 -14.125 16.265625 C-10.33165415 16.29741339 -10.33165415 16.29741339 -7.125 15.265625 C-7.17720703 13.89277344 -7.17720703 13.89277344 -7.23046875 12.4921875 C-7.25753906 11.30367187 -7.28460938 10.11515625 -7.3125 8.890625 C-7.34730469 7.70726562 -7.38210938 6.52390625 -7.41796875 5.3046875 C-7.32128906 4.30179688 -7.22460938 3.29890625 -7.125 2.265625 C-4.07526315 0.2324671 -3.43543132 0.0107742 0 0 Z M0.875 9.265625 C0.545 12.895625 0.215 16.525625 -0.125 20.265625 C-1.82629086 21.11324322 -3.53643084 21.9431118 -5.25 22.765625 C-6.20132813 23.2296875 -7.15265625 23.69375 -8.1328125 24.171875 C-11.42951163 25.37693473 -13.64465094 25.68175369 -17.125 25.265625 C-19.2421875 23.953125 -19.2421875 23.953125 -21 22.265625 C-21.59554688 21.70875 -22.19109375 21.151875 -22.8046875 20.578125 C-23.45824219 19.9284375 -23.45824219 19.9284375 -24.125 19.265625 C-25.775 21.245625 -27.425 23.225625 -29.125 25.265625 C-27.64 26.565 -27.64 26.565 -26.125 27.890625 C-23.94323807 30.10857729 -23.19041271 30.9712678 -22.5 34.078125 C-23.50374608 39.19723001 -25.80661884 43.62886268 -28.125 48.265625 C-30.62890625 48.6796875 -30.62890625 48.6796875 -33.6875 48.890625 C-34.69941406 48.96539062 -35.71132813 49.04015625 -36.75390625 49.1171875 C-37.53636719 49.16617188 -38.31882812 49.21515625 -39.125 49.265625 C-39.125 51.905625 -39.125 54.545625 -39.125 57.265625 C-35.495 57.595625 -31.865 57.925625 -28.125 58.265625 C-27.28057119 60.15654236 -26.44988413 62.05360015 -25.625 63.953125 C-25.1609375 65.00886719 -24.696875 66.06460938 -24.21875 67.15234375 C-23.14825874 70.19942067 -22.65880889 72.08704928 -23.125 75.265625 C-24.4375 77.28515625 -24.4375 77.28515625 -26.125 79.078125 C-26.681875 79.68269531 -27.23875 80.28726563 -27.8125 80.91015625 C-28.245625 81.35746094 -28.67875 81.80476563 -29.125 82.265625 C-27.145 83.915625 -25.165 85.565625 -23.125 87.265625 C-22.279375 86.255 -21.43375 85.244375 -20.5625 84.203125 C-17.96084686 81.61368619 -17.55006196 81.2733534 -13.6875 81.203125 C-9.98439699 82.30755923 -6.65500071 83.70427853 -3.125 85.265625 C-2.135 85.265625 -1.145 85.265625 -0.125 85.265625 C0.37 91.205625 0.37 91.205625 0.875 97.265625 C3.515 97.265625 6.155 97.265625 8.875 97.265625 C9.205 93.635625 9.535 90.005625 9.875 86.265625 C12.44661458 85.25651042 15.01822917 84.24739583 17.58984375 83.23828125 C19.79918533 82.4660032 19.79918533 82.4660032 20.875 81.265625 C24.08590542 80.7304741 26.10058511 80.73437639 28.828125 82.60546875 C30.56852178 84.10886028 32.24418839 85.64446317 33.875 87.265625 C35.525 85.285625 37.175 83.305625 38.875 81.265625 C37.885 80.399375 36.895 79.533125 35.875 78.640625 C33.47288323 76.53877282 32.9212136 75.64793751 32.53125 72.421875 C32.91015178 68.94286779 33.84488473 66.52736131 35.375 63.390625 C35.8390625 62.42382812 36.303125 61.45703125 36.78125 60.4609375 C37.1421875 59.73648438 37.503125 59.01203125 37.875 58.265625 C41.505 57.935625 45.135 57.605625 48.875 57.265625 C48.875 54.625625 48.875 51.985625 48.875 49.265625 C43.43 48.770625 43.43 48.770625 37.875 48.265625 C36.8742365 46.06394531 35.87929393 43.85927012 34.92578125 41.63671875 C33.84748853 39.11140603 33.84748853 39.11140603 32.1875 36.203125 C31.875 33.265625 31.875 33.265625 33.31640625 31.12109375 C35.09276924 29.07199624 36.9202303 27.144111 38.875 25.265625 C37.555 23.615625 36.235 21.965625 34.875 20.265625 C31.57634487 20.63214224 30.77650863 21.37169263 28.4375 23.890625 C27.591875 24.674375 26.74625 25.458125 25.875 26.265625 C21.91782085 25.93586007 18.62695799 24.3779908 15.0625 22.703125 C13.59876953 22.02056641 13.59876953 22.02056641 12.10546875 21.32421875 C11.36941406 20.97488281 10.63335937 20.62554687 9.875 20.265625 C9.38 14.820625 9.38 14.820625 8.875 9.265625 C6.235 9.265625 3.595 9.265625 0.875 9.265625 Z " fill="#7ACC5F" transform="translate(337.125,204.734375)"/>
<path d="M0 0 C5.37233464 5.67932519 8.69882634 12.59348236 8.5859375 20.3828125 C7.70546563 26.8568704 4.81327856 32.88798432 -0.00390625 37.3359375 C-6.27562753 41.68687781 -13.04818408 44.65448053 -20.8125 43.3125 C-28.36287615 40.52289538 -34.08736733 36.68108865 -38.0625 29.5625 C-40.83424168 23.53254769 -41.57718772 18.01787847 -39.625 11.625 C-36.33509765 3.24011614 -31.81936718 -0.748224 -23.8125 -4.6875 C-15.01942937 -7.38058067 -7.58501854 -4.55101112 0 0 Z " fill="#174436" transform="translate(221.8125,166.6875)"/>
<path d="M0 0 C4.61280521 2.83036243 7.59686138 6.53445339 9.5625 11.5625 C10.72839218 18.38454476 10.69326708 24.6428713 7.0625 30.6875 C3.03276358 35.71998479 -0.93704873 38.11432901 -7.3359375 38.93359375 C-13.79628834 39.202097 -19.31212539 38.74252773 -24.4375 34.5625 C-29.32282876 29.79249016 -30.85597117 25.28388914 -31.125 18.5 C-30.76791548 11.13612365 -29.03244432 7.0133074 -23.78125 1.97265625 C-17.11189772 -3.12826784 -7.61012864 -3.15506293 0 0 Z " fill="#7BCD5F" transform="translate(352.4375,239.4375)"/>
<path d="M0 0 C3.15592505 2.06101227 4.5565601 3.4856109 5.62109375 7.12109375 C6.45309018 12.20742244 6.08056315 15.68721158 3 20 C-0.64630899 23.21733146 -4.1530175 23.51560258 -8.84765625 23.359375 C-12.08890775 22.818186 -13.78200098 21.3524232 -16 19 C-18.68761942 14.96857086 -18.92537664 11.73667363 -18 7 C-13.32864864 -0.73782128 -8.59532809 -1.91908269 0 0 Z " fill="#164434" transform="translate(348,247)"/>
</svg>
